<?xml version="1.0" encoding="utf-8"?>
<!-- Generator: Adobe Illustrator 21.1.0, SVG Export Plug-In . SVG Version: 6.00 Build 0)  -->
<svg version="1.1" id="Warstwa_1" xmlns="http://www.w3.org/2000/svg" xmlns:xlink="http://www.w3.org/1999/xlink" x="0px" y="0px"
	 viewBox="0 0 32 32" style="enable-background:new 0 0 32 32;" xml:space="preserve">
<style type="text/css">
	.st0{fill:#121212;}
</style>
<path class="st0" d="M29.1,30.1L29.1,30.1C29.1,30.1,29.1,30.1,29.1,30.1l-0.7-4c0,0,0,0,0,0c0,0,0,0,0,0c0,0,0,0,0,0c0,0,0,0,0,0
	c0,0,0,0,0,0c0,0,0,0,0,0c0,0,0,0,0,0c0,0,0,0,0,0l-3.1-4l2-2c1-1,1.6-2.3,1.7-3.6c0.1-1.4-0.2-2.7-0.9-3.9
	c-0.1-0.2-0.4-0.3-0.6-0.1c-0.2,0.1-0.3,0.4-0.1,0.6c0.6,1,0.9,2.2,0.8,3.3c-0.1,1.2-0.6,2.3-1.5,3.1l-1.9,1.9L22.2,18l0.9-1.2
	c0.2-0.2,0.1-0.5-0.1-0.6c-0.2-0.2-0.5-0.1-0.6,0.1l-2.7,3.4l0,0c0,0,0,0,0,0L15.6,21c-0.2,0.1-0.4,0.3-0.3,0.6
	c0.1,0.2,0.2,0.3,0.4,0.3c0,0,0.1,0,0.1,0l1.4-0.5l3,4l-3.1,3.1c-0.1,0.1-0.3,0.1-0.4,0l-9.2-9.2c-2-2-2-5.3,0-7.3c2-2,5.3-2,7.3,0
	l1.2,1.2c0.2,0.2,0.5,0.4,0.9,0.4c0.3,0,0.6-0.1,0.9-0.4l1.2-1.2c0.9-0.9,2.2-1.5,3.5-1.5c1.3-0.1,2.6,0.4,3.6,1.2
	c0.2,0.2,0.5,0.1,0.6-0.1c0.2-0.2,0.1-0.5-0.1-0.6c-1.2-1-2.6-1.5-4.2-1.4c-1.5,0.1-3,0.7-4.1,1.8l-0.8,0.8L13.1,6l0,0
	c0.2-0.1,0.2-0.4,0.1-0.6l-1.4-1.9c-0.1-0.2-0.4-0.2-0.6-0.1l0,0L9.9,1.8c-0.7-0.9-1.9-1-2.8-0.4L5.5,2.6C4.7,3.2,4.5,4.2,5,5.1
	C5,5.2,5.2,5.3,5.4,5.3c0.1,0,0.1,0,0.2-0.1c0.2-0.1,0.3-0.4,0.2-0.6c-0.2-0.5-0.1-1,0.3-1.4l1.6-1.2c0.5-0.4,1.2-0.3,1.5,0.2
	l1.2,1.6L7.1,6.4L6.8,6C6.6,5.9,6.4,5.8,6.2,6C6,6.1,5.9,6.4,6.1,6.6L6.4,7l0,0C6.1,7.2,6.1,7.5,6.2,7.7l1.4,1.9
	C7.8,9.6,7.9,9.7,8,9.7c0.1,0,0.2,0,0.3-0.1l0,0l0.4,0.5c-0.6,0.3-1.2,0.7-1.7,1.2c-2.4,2.4-2.4,6.2,0,8.6l9.2,9.2
	c0.2,0.2,0.5,0.4,0.9,0.4c0.3,0,0.6-0.1,0.9-0.4l3-3l2.6,3.4c0,0,0,0,0,0c0,0,0,0,0,0c0,0,0,0,0,0c0,0,0,0,0,0c0,0,0,0,0,0
	c0,0,0,0,0,0c0,0,0,0,0,0c0,0,0,0,0,0l0,0c0,0,0,0,0,0l3.6,1.8l0,0l0,0l0,0c0.2,0.1,0.4,0.1,0.6,0.1c0.3,0,0.5-0.1,0.7-0.2
	C29,31,29.1,30.6,29.1,30.1z M11.1,7.5l1.6,2.2c-0.4-0.1-0.9-0.2-1.4-0.2l-1.1-1.4L11.1,7.5z M8.1,8.6L7.2,7.5l4.1-3.1l0.9,1.2
	L8.1,8.6 M25.2,27.6l-5.4-7.1l0.3-0.1c0,0,0,0,0,0c0,0,0,0,0,0c0,0,0,0,0,0c0,0,0,0,0,0c0,0,0,0,0,0c0,0,0,0,0,0c0,0,0,0,0,0
	c0,0,0,0,0,0c0,0,0,0,0,0c0,0,0,0,0,0c0,0,0,0,0,0c0,0,0,0,0,0l0,0c0,0,0,0,0,0l0.2-0.3l5.4,7L25.2,27.6z M24.7,29.1
	C24.7,29.1,24.7,29.1,24.7,29.1C24.7,29.1,24.7,29.1,24.7,29.1l2.9-2.2c0,0,0,0,0,0c0,0,0,0,0,0l0,0l0.3,1.7c0,0-0.1,0-0.1,0
	c0,0,0,0,0,0c-0.1,0-0.1,0-0.2,0.1c0,0,0,0,0,0c0,0-0.1,0-0.1,0.1c0,0,0,0,0,0c0,0-0.1,0-0.1,0.1c0,0,0,0,0,0c0,0-0.1,0-0.1,0.1
	c0,0,0,0,0,0c0,0-0.1,0.1-0.1,0.1c0,0,0,0,0,0c0,0-0.1,0.1-0.1,0.1c0,0,0,0,0,0c0,0-0.1,0.1-0.1,0.1c0,0,0,0,0,0
	c0,0-0.1,0.1-0.1,0.1c0,0,0,0,0,0c0,0-0.1,0.1-0.1,0.1c0,0,0,0,0,0c0,0-0.1,0.1-0.1,0.1c0,0,0,0,0,0c0,0-0.1,0.1-0.1,0.1L24.7,29.1
	L24.7,29.1z"/>
</svg>
