<?xml version="1.0" standalone="no"?>
<!DOCTYPE svg PUBLIC "-//W3C//DTD SVG 20010904//EN"
 "http://www.w3.org/TR/2001/REC-SVG-20010904/DTD/svg10.dtd">
<svg version="1.0" xmlns="http://www.w3.org/2000/svg"
 width="700.000000pt" height="700.000000pt" viewBox="0 0 700.000000 700.000000"
 preserveAspectRatio="xMidYMid meet">
<metadata>
Created by potrace 1.11, written by Peter Selinger 2001-2013
</metadata>
<g transform="translate(0.000000,700.000000) scale(0.100000,-0.100000)"
fill="#000000" stroke="none">
<path d="M1788 6775 c-2 -1 -24 -5 -50 -8 -67 -8 -164 -57 -268 -135 -49 -37
-101 -76 -116 -87 -153 -112 -202 -154 -241 -207 -77 -105 -97 -242 -54 -371
28 -83 55 -116 102 -123 28 -5 41 -1 67 21 44 36 55 84 35 143 -10 32 -14 68
-11 114 8 111 32 139 253 307 199 150 247 178 312 185 48 4 119 -18 152 -47
23 -22 301 -387 301 -397 0 -3 -26 -26 -58 -51 -57 -46 -555 -437 -624 -491
l-36 -28 -32 44 c-51 71 -117 84 -174 35 -43 -38 -43 -85 -1 -137 57 -70 55
-63 28 -98 -27 -36 -35 -77 -22 -111 4 -12 52 -82 106 -155 210 -286 195 -268
251 -287 43 -15 56 -16 81 -5 29 12 30 11 70 -41 l41 -54 -34 -20 c-18 -12
-36 -21 -39 -21 -8 0 -92 -56 -162 -109 -268 -201 -453 -511 -509 -849 -8 -48
-14 -94 -14 -102 0 -8 -1 -53 -2 -100 -4 -219 67 -483 181 -671 89 -146 174
-235 1198 -1260 1170 -1171 1108 -1115 1230 -1107 36 2 84 12 106 23 26 12
164 141 388 364 192 190 349 347 351 348 1 2 24 -28 51 -65 27 -37 52 -69 55
-72 6 -5 80 -102 322 -420 48 -63 101 -131 117 -151 24 -28 112 -76 438 -240
l408 -204 85 1 c77 0 91 3 155 36 79 40 98 58 120 111 29 69 25 120 -40 487
-3 14 -7 36 -10 50 -7 33 -10 52 -35 200 -24 141 -25 151 -35 200 -3 19 -7 42
-9 52 -1 12 -383 516 -483 638 -49 59 -193 250 -193 255 0 4 110 117 245 251
134 135 269 278 299 318 107 139 186 302 226 465 28 116 32 146 34 282 5 252
-46 468 -161 691 -55 108 -77 126 -133 109 -40 -12 -80 -55 -80 -86 0 -9 22
-58 49 -108 71 -135 120 -278 139 -406 9 -61 8 -315 -1 -368 -13 -73 -54 -200
-88 -270 -59 -126 -124 -203 -386 -466 l-258 -257 -280 366 c-154 201 -279
372 -279 379 1 7 47 73 103 148 55 74 103 145 105 158 5 36 -19 74 -59 94 -71
33 -47 56 -400 -390 -121 -153 -224 -283 -230 -289 -5 -6 -27 -32 -48 -59 -21
-26 -45 -47 -52 -47 -8 0 -47 -11 -87 -24 -40 -13 -233 -75 -428 -136 -220
-70 -367 -121 -387 -136 -42 -32 -51 -73 -25 -122 13 -26 29 -40 51 -46 36
-10 60 -4 250 66 57 22 104 38 105 36 4 -6 151 -203 163 -218 7 -8 120 -159
252 -335 l240 -320 -347 -347 c-292 -292 -352 -348 -376 -348 -24 0 -181 153
-1065 1038 -570 570 -1057 1064 -1082 1097 -95 126 -158 254 -197 400 -137
519 110 1067 586 1300 100 49 218 87 312 101 19 2 46 7 60 9 35 7 222 7 262 1
18 -4 44 -8 58 -10 145 -24 311 -89 433 -170 76 -51 151 -118 322 -288 173
-172 219 -201 315 -200 95 0 131 24 328 219 195 193 287 268 407 330 83 43
233 97 298 107 368 58 665 -12 953 -226 66 -49 104 -51 145 -6 30 34 37 74 19
108 -12 22 -129 111 -216 164 -111 68 -289 136 -399 153 -16 2 -46 8 -65 12
-64 14 -292 12 -390 -3 -105 -17 -113 -19 -185 -40 -257 -74 -424 -177 -648
-395 -60 -58 -112 -107 -116 -109 -5 -2 -71 85 -147 193 -77 108 -155 218
-174 245 -19 26 -41 56 -48 67 -7 10 -90 127 -185 260 -450 635 -409 572 -392
596 8 12 15 34 15 49 0 53 2 49 -264 408 -38 52 -72 97 -74 100 -2 3 -30 5
-62 5 l-58 0 -152 188 c-170 211 -231 265 -329 297 -56 18 -163 33 -173 25z
m763 -842 c40 -54 83 -112 96 -129 l23 -31 -73 -51 c-39 -28 -146 -106 -237
-172 -91 -67 -174 -128 -185 -136 -20 -14 -165 -121 -260 -191 -27 -20 -71
-51 -97 -70 l-46 -34 -96 118 c-53 64 -96 120 -96 123 0 3 117 93 260 200 143
107 272 204 286 215 140 111 331 253 340 254 6 1 44 -43 85 -96z m57 -820 c89
-123 162 -225 162 -227 0 -3 -10 -3 -22 0 -115 23 -191 34 -234 34 -41 0 -41
0 -162 154 l-121 155 97 64 c72 48 100 62 108 53 6 -6 83 -111 172 -233z
m1997 -2723 c66 -85 125 -162 132 -170 6 -8 58 -76 115 -150 57 -74 211 -274
343 -445 131 -170 262 -339 289 -375 28 -36 70 -91 94 -122 l44 -57 -53 -51
c-29 -28 -56 -49 -60 -48 -4 2 -131 167 -283 368 -152 201 -283 372 -290 381
-7 9 -96 126 -198 260 -101 134 -235 309 -296 389 l-112 145 31 9 c17 5 42 24
56 42 l25 33 22 -27 c12 -15 76 -97 141 -182z m1444 -1342 c17 -97 21 -117 37
-205 16 -88 14 -103 -16 -103 -11 0 -68 -50 -135 -119 l-116 -118 -201 63
c-111 35 -203 66 -205 68 -3 2 42 39 99 82 308 233 366 277 393 299 17 13 51
40 75 59 25 19 48 35 51 35 4 1 12 -27 18 -61z"/>
</g>
</svg>
