<?xml version="1.0" encoding="utf-8"?>
<!-- Generator: Adobe Illustrator 21.1.0, SVG Export Plug-In . SVG Version: 6.00 Build 0)  -->
<svg version="1.1" id="Warstwa_1" xmlns="http://www.w3.org/2000/svg" xmlns:xlink="http://www.w3.org/1999/xlink" x="0px" y="0px"
	 viewBox="0 0 585 730" style="enable-background:new 0 0 585 730;" xml:space="preserve">
<style type="text/css">
	.st0{fill:none;stroke:#CCD3DB;stroke-width:0.75;stroke-miterlimit:10;}
	.st1{fill:#FFFFFF;stroke:#CCD3DB;stroke-width:0.75;stroke-miterlimit:10;}
	.st2{fill:url(#SVGID_1_);}
	.st3{fill:#3C3C3F;}
	.st4{font-family:'Roboto-Regular';}
	.st5{font-size:9px;}
	.st6{font-size:13px;}
	.st7{fill:#447545;}
	.st8{font-size:7px;}
	.st9{letter-spacing:1;}
	.st10{fill:none;stroke:#949DAF;stroke-width:0.5;stroke-miterlimit:10;}
	.st11{fill:url(#SVGID_2_);}
	.st12{fill:url(#SVGID_3_);}
	.st13{opacity:0;}
	.st14{font-size:11px;}
	.st15{fill:url(#SVGID_4_);}
	.st16{fill:#EA9784;}
</style>
<line class="st0" x1="36" y1="540.6" x2="36" y2="26.1"/>
<g>
	<circle class="st1" cx="36" cy="28.7" r="6.9"/>
	<linearGradient id="SVGID_1_" gradientUnits="userSpaceOnUse" x1="32.8249" y1="28.72" x2="39.1784" y2="28.72">
		<stop  offset="0" style="stop-color:#EA9784"/>
		<stop  offset="1" style="stop-color:#F0D0C1"/>
	</linearGradient>
	<circle class="st2" cx="36" cy="28.7" r="3.2"/>
</g>
<g>
	<text transform="matrix(1 0 0 1 78.6683 575.3094)"><tspan x="0" y="0" class="st3 st4 st5">Web design (UX, graphic)</tspan><tspan x="0" y="12" class="st3 st4 st5">Branding + visual strategies</tspan><tspan x="0" y="24" class="st3 st4 st5">Illustration</tspan><tspan x="0" y="36" class="st3 st4 st5">DTP works</tspan><tspan x="0" y="48" class="st3 st4 st5">Projects management and client relations</tspan></text>
</g>
<text transform="matrix(1 0 0 1 61.3346 557.9914)" class="st3 st4 st6">Web designer + CI + Illustrator</text>
<g>
	<text transform="matrix(1 0 0 1 61.3344 538.3022)" class="st7 st4 st5">Freelance</text>
</g>
<g>
	<text transform="matrix(1 0 0 1 110.4908 537.7743)" class="st3 st4 st8 st9">2012-</text>
</g>
<g>
	<path class="st10" d="M144.2,535.4c0,0-2,3-4.1,3c-2.1,0-3.6-1.4-3.6-3s1.4-3,3.6-3C142.2,532.3,144.2,535.4,144.2,535.4z"/>
	<path class="st10" d="M144.1,535.4c0,0,2,3,4.1,3c2.1,0,3.6-1.4,3.6-3s-1.4-3-3.6-3C146.1,532.3,144.1,535.4,144.1,535.4z"/>
</g>
<g>
	<g>
		<text transform="matrix(1 0 0 1 61.3342 639.7185)" class="st3 st4 st8 st9">CHOSEN PROJECTS:</text>
	</g>
	<g>
		<text transform="matrix(1 0 0 1 61.3342 656.9316)"><tspan x="0" y="0" class="st3 st4 st5">NOMAGIC.AI - Full identity and all graphic materials</tspan><tspan x="0" y="13" class="st3 st4 st5">KRUG.ORG.PL - Creation of the key visual and events care</tspan><tspan x="0" y="26" class="st3 st4 st5">CALINCOME - UX/UI of application for home budget management</tspan><tspan x="0" y="39" class="st3 st4 st5">CODITSU.IO - UX consulting for code surveillance application</tspan></text>
	</g>
</g>
<g>
	<circle class="st1" cx="36" cy="537.4" r="6.9"/>
	<linearGradient id="SVGID_2_" gradientUnits="userSpaceOnUse" x1="32.8249" y1="537.3878" x2="39.1784" y2="537.3878">
		<stop  offset="0" style="stop-color:#EA9784"/>
		<stop  offset="1" style="stop-color:#F0D0C1"/>
	</linearGradient>
	<circle class="st11" cx="36" cy="537.4" r="3.2"/>
</g>
<g>
	<text transform="matrix(1 0 0 1 78.6683 68.2783)"><tspan x="0" y="0" class="st3 st4 st5">Full UI redesign of an insurance desktop app</tspan><tspan x="0" y="12" class="st3 st4 st5">UX / architecture upgrade</tspan><tspan x="0" y="24" class="st3 st4 st5">Global functionality and UX audit</tspan><tspan x="0" y="36" class="st3 st4 st5">New features introduction</tspan><tspan x="0" y="48" class="st3 st4 st5">Technical planning, working in a team of developers and a business owner</tspan></text>
</g>
<text transform="matrix(1 0 0 1 61.3346 50.4859)" class="st3 st4 st6">UX/UI Designer</text>
<g>
	<text transform="matrix(1 0 0 1 61.3345 29.4241)" class="st7 st4 st5">Agency MVP</text>
</g>
<g>
	<text transform="matrix(1 0 0 1 120.1578 28.8963)" class="st3 st4 st8 st9">2019</text>
</g>
<g>
	<circle class="st1" cx="35.9" cy="153.3" r="6.8"/>
	<linearGradient id="SVGID_3_" gradientUnits="userSpaceOnUse" x1="32.7733" y1="153.2783" x2="39.0377" y2="153.2783">
		<stop  offset="0" style="stop-color:#EA9784"/>
		<stop  offset="1" style="stop-color:#F0D0C1"/>
	</linearGradient>
	<circle class="st12" cx="35.9" cy="153.3" r="3.1"/>
</g>
<g>
	<text transform="matrix(1 0 0 1 78.6685 193.1526)"><tspan x="0" y="0" class="st3 st4 st5">Creating mobile and desktop interfaces</tspan><tspan x="0" y="12" class="st3 st4 st5">UX, Prototyping, Wireframing</tspan></text>
</g>
<text transform="matrix(1 0 0 1 61.3348 175.837)" class="st3 st4 st6">Senior UI Designer</text>
<g>
	<text transform="matrix(1 0 0 1 61.3346 155.3958)" class="st7 st4 st5">Codest</text>
</g>
<g>
	<text transform="matrix(1 0 0 1 99.1583 154.8676)" class="st3 st4 st8 st9">2014-2017</text>
</g>
<g>
	<g>
		<text transform="matrix(1 0 0 1 99.1586 221.0699)" class="st3 st4 st8 st9">CHOSEN PROJECTS:</text>
	</g>
	<g>
		<text transform="matrix(1 0 0 1 99.1586 237.4915)"><tspan x="0" y="0" class="st3 st4 st5">YIELDBIRD PANEL - UX/UI design of a tool for complete ad campaigns management for large businesses</tspan><tspan x="0" y="13" class="st3 st4 st5">PERSGROEP.BE - UX for ad campaign wizard for advertisers</tspan><tspan x="0" y="26" class="st3 st4 st5">LOCALSTARS.COM - UX design of a wizard for creating HTML5 graphic ad creatives</tspan><tspan x="0" y="39" class="st3 st4 st5">MONEYPLAN - UX/UI design of updates in an internal ad management / financial application of Agora S.A. Agency</tspan><tspan x="0" y="52" class="st3 st4 st5">CODEST - Full identity and all graphic materials of the company</tspan><tspan x="0" y="65" class="st3 st4 st5">CODE_SENSEI - Visual / marketing creation of the brand</tspan><tspan x="0" y="78" class="st3 st4 st5">ELLE.PL - UX design for a promotion / coupon / ad management application - panels for admin / user / partner</tspan></text>
	</g>
</g>
<text transform="matrix(0.3355 0 0 1 99.1582 237.4915)" class="st13 st4 st14">https://panel.yieldbird.com/en/users/sign_in</text>
<g>
	<circle class="st1" cx="36" cy="356.8" r="6.9"/>
	<linearGradient id="SVGID_4_" gradientUnits="userSpaceOnUse" x1="32.8249" y1="356.769" x2="39.1784" y2="356.769">
		<stop  offset="0" style="stop-color:#EA9784"/>
		<stop  offset="1" style="stop-color:#F0D0C1"/>
	</linearGradient>
	<circle class="st15" cx="36" cy="356.8" r="3.2"/>
</g>
<g>
	<text transform="matrix(1 0 0 1 78.6683 396.6465)"><tspan x="0" y="0" class="st3 st4 st5">Graphic design for web and print</tspan><tspan x="0" y="12" class="st3 st4 st5">Creating and upervision on internal visual brand strategy</tspan><tspan x="0" y="24" class="st3 st4 st5">Creating other CIs</tspan><tspan x="0" y="36" class="st3 st4 st5">Cooperating with product managers and marketing</tspan></text>
</g>
<text transform="matrix(1 0 0 1 61.3346 378.8541)" class="st3 st4 st6">Graphic Designer</text>
<g>
	<text transform="matrix(1 0 0 1 61.3345 357.7923)" class="st7 st4 st5">Yieldbird &amp; AdTaily</text>
</g>
<g>
	<text transform="matrix(1 0 0 1 145.1578 357.2645)" class="st3 st4 st8 st9">2014-2017</text>
</g>
<g>
	<g>
		<text transform="matrix(1 0 0 1 99.1586 459.4282)" class="st3 st4 st8 st9">CHOSEN PROJECTS:</text>
	</g>
	<g>
		<text transform="matrix(1 0 0 1 99.1586 475.8499)"><tspan x="0" y="0" class="st3 st4 st5">YIELDBIRD IDENTIFICATION - CI redesign and all graphic design for web&amp;print</tspan><tspan x="0" y="13" class="st3 st4 st5">ADTAILY IDENTIFICATION - CI redesign and all graphic design for web&amp;print</tspan><tspan x="0" y="26" class="st3 st4 st5">REALAUDIENCE.SE - Identification for an integrated Customer Data Platform</tspan></text>
	</g>
</g>
<text transform="matrix(1 0 0 1 64.6683 67.2783)"><tspan x="0" y="0" class="st16 st4 st5">-</tspan><tspan x="0" y="12" class="st16 st4 st5">-</tspan><tspan x="0" y="24" class="st16 st4 st5">-</tspan><tspan x="0" y="36" class="st16 st4 st5">-</tspan><tspan x="0" y="48" class="st16 st4 st5">-</tspan></text>
<text transform="matrix(1 0 0 1 64.6683 192.1527)"><tspan x="0" y="0" class="st16 st4 st5">-</tspan><tspan x="0" y="12" class="st16 st4 st5">-</tspan></text>
<text transform="matrix(1 0 0 1 64.6683 395.6463)"><tspan x="0" y="0" class="st16 st4 st5">-</tspan><tspan x="0" y="12" class="st16 st4 st5">-</tspan><tspan x="0" y="24" class="st16 st4 st5">-</tspan><tspan x="0" y="36" class="st16 st4 st5">-</tspan></text>
<text transform="matrix(1 0 0 1 64.6683 574.3096)"><tspan x="0" y="0" class="st16 st4 st5">-</tspan><tspan x="0" y="12" class="st16 st4 st5">-</tspan><tspan x="0" y="24" class="st16 st4 st5">-</tspan><tspan x="0" y="36" class="st16 st4 st5">-</tspan><tspan x="0" y="48" class="st16 st4 st5">-</tspan></text>
</svg>
