<?xml version="1.0" encoding="utf-8"?>
<!-- Generator: Adobe Illustrator 21.1.0, SVG Export Plug-In . SVG Version: 6.00 Build 0)  -->
<svg version="1.1" id="Warstwa_1" xmlns="http://www.w3.org/2000/svg" xmlns:xlink="http://www.w3.org/1999/xlink" x="0px" y="0px"
	 viewBox="0 0 228 102" style="enable-background:new 0 0 228 102;" xml:space="preserve">
<style type="text/css">
	.st0{fill:#FEFCF5;}
	.st1{fill:#EC9784;}
</style>
<g>
	<ellipse class="st0" cx="118.8" cy="38.9" rx="108.3" ry="38.7"/>
</g>
<g>
	<ellipse class="st0" cx="32.1" cy="80.3" rx="18.5" ry="13.4"/>
</g>
<g>
	<path class="st1" d="M73.8,46c0.7,0,1.4,0,2.1,0s1.5-0.1,2.2-0.2s1.8-0.9,2.9-2.4c1.2-1.5,2-3,2.5-4.6h0.4v7.7H65v-0.4
		c0.2,0,0.4,0,0.7,0c0.3,0,0.6-0.1,0.9-0.1c0.3,0,0.6-0.2,0.8-0.4c0.2-0.2,0.3-0.6,0.3-1.1l0-1.1V32l0-1.1c0-0.5-0.2-0.9-0.4-1.1
		s-0.5-0.3-0.8-0.4c-0.3,0-0.7-0.1-0.9-0.1c-0.3,0-0.5,0-0.8,0v-0.4h18.5V36h-0.4c-0.8-1.8-1.8-3.3-3-4.5s-2.2-1.9-2.9-2
		s-1.5-0.1-2-0.1c-0.5,0-0.9,0-1.1,0h-0.2l0,7.9l1,0c0.9-0.1,1.6-0.5,2.1-1.3c0.5-0.8,0.7-1.7,0.7-2.8h0.5v8.8h-0.5
		c0-1.1-0.2-2-0.7-2.8c-0.5-0.8-1.2-1.3-2.1-1.3l-1,0V46z"/>
	<path class="st1" d="M85.4,38.7h6.4v3.7h-6.4V38.7z"/>
	<path class="st1" d="M114.7,46.4h-7.3v-0.4c0.6,0,0.9-0.1,1-0.3c0.1-0.2,0.2-0.6,0.2-1.3l0-1.1v-4.9l0-1c0-0.7-0.1-1.2-0.3-1.5
		s-0.5-0.5-0.9-0.5c-0.3,0-0.6,0.1-0.9,0.4c-0.3,0.3-0.5,0.8-0.7,1.6v5.8l0,1.1c0,0.5,0,0.9,0.1,1.1s0.4,0.4,0.9,0.4v0.4h-6.8v-0.4
		c0.5,0,0.9-0.1,1-0.3c0.1-0.2,0.2-0.6,0.2-1.3l0-1.1v-4.9l0-1c0-0.7-0.1-1.2-0.3-1.5s-0.5-0.5-0.9-0.5c-0.5,0-0.9,0.2-1.1,0.5
		c-0.2,0.4-0.4,0.7-0.5,1.1v6.2l0,1.1c0,0.5,0,0.9,0.1,1.1s0.4,0.4,0.9,0.4v0.4h-7.2v-0.4l0.5,0c0.5,0,0.7-0.2,0.8-0.3
		c0.1-0.2,0.1-0.6,0.1-1.2l0-1.1v-5.8l0-1c0-0.4-0.1-0.7-0.1-0.9c-0.1-0.2-0.4-0.3-0.9-0.4l-0.6,0V35h6.1v1.8
		c0.1-0.4,0.4-0.9,0.9-1.4c0.4-0.5,1.3-0.7,2.6-0.7c0.9,0,1.7,0.2,2.3,0.6c0.7,0.4,1.2,0.9,1.5,1.7c0.1-0.3,0.3-0.7,0.6-1.3
		c0.3-0.6,1.3-0.9,2.9-0.9c1.1,0,2,0.3,2.8,0.9c0.8,0.6,1.2,1.4,1.2,2.4v5.4l0,1.1c0,0.6,0,1,0.1,1.2c0.1,0.2,0.4,0.3,0.9,0.3l0.4,0
		V46.4z"/>
	<path class="st1" d="M127.5,45.3c0.4,0,0.6-0.2,0.8-0.7c0.2-0.5,0.2-1,0.2-1.7h0.3c0,1.4-0.3,2.3-0.8,2.8c-0.5,0.5-1,0.7-1.4,0.9
		s-0.9,0.2-1.5,0.2c-0.7,0-1.3-0.2-1.8-0.5c-0.5-0.4-0.9-0.8-1-1.4c-0.3,0.7-0.7,1.1-1.3,1.5s-1.4,0.5-2.3,0.5c-1,0-1.9-0.3-2.5-0.8
		s-1-1.3-1-2.3c0-0.8,0.2-1.5,0.6-1.9c0.4-0.5,0.8-0.8,1.2-0.9c0.4-0.1,1.1-0.2,1.9-0.3c0.9-0.1,1.5-0.2,1.9-0.3
		c0.4-0.1,0.7-0.2,0.9-0.3c0.2-0.1,0.3-0.3,0.3-0.6l0-2.2c0-0.6-0.1-1.1-0.2-1.4c-0.2-0.3-0.5-0.4-1-0.4c-0.3,0-0.6,0.1-0.8,0.2
		c-0.2,0.1-0.3,0.3-0.3,0.6c0,0.2,0.2,0.4,0.5,0.7c0.3,0.3,0.5,0.7,0.5,1.2c0,0.5-0.2,0.9-0.7,1.3c-0.4,0.4-1.2,0.6-2.2,0.6
		c-0.5,0-1-0.1-1.4-0.4c-0.4-0.3-0.6-0.7-0.6-1.2c0-1,0.6-1.8,1.7-2.4c1.1-0.6,2.4-0.9,4-0.9c1.3,0,2.5,0.3,3.6,0.8
		c1.1,0.5,1.6,1.4,1.6,2.5v5.5c0,0.5,0,0.9,0.1,1.2C127,45.1,127.2,45.3,127.5,45.3z M122.1,44.5v-4.6l-0.1,0
		c-0.1,0.2-0.4,0.4-0.8,0.5s-0.7,0.3-0.8,0.5c-0.2,0.2-0.3,0.5-0.4,0.9c-0.1,0.5-0.1,0.9-0.1,1.4c0,0.7,0.1,1.3,0.2,1.7
		s0.4,0.6,0.8,0.6c0.3,0,0.6-0.1,0.8-0.4C121.9,45.1,122.1,44.8,122.1,44.5z"/>
	<path class="st1" d="M136.6,46.4h-7.8v-0.4l0.6,0c0.5,0,0.7-0.2,0.8-0.3c0.1-0.2,0.1-0.6,0.1-1.2l0-1.1v-5.8l0-1
		c0-0.4-0.1-0.7-0.1-0.9c-0.1-0.2-0.4-0.3-0.9-0.4l-0.6,0V35h6.3v8.4l0,1.1c0,0.6,0,1,0.1,1.1c0.1,0.2,0.4,0.3,0.8,0.3l0.6,0V46.4z
		 M130.3,31c0-0.6,0.2-1.2,0.7-1.6c0.5-0.4,1-0.7,1.7-0.7c0.7,0,1.2,0.2,1.7,0.6c0.5,0.4,0.7,1,0.7,1.6c0,0.6-0.2,1.2-0.7,1.6
		c-0.5,0.4-1,0.7-1.7,0.7c-0.6,0-1.2-0.2-1.7-0.7C130.5,32.2,130.3,31.7,130.3,31z"/>
	<path class="st1" d="M144.8,46.4H137v-0.4l0.6,0c0.5,0,0.8-0.2,0.8-0.3c0.1-0.2,0.1-0.6,0.1-1.2l0-1.1V31.5l0-1
		c0-0.4-0.1-0.7-0.1-0.9c-0.1-0.2-0.4-0.3-0.9-0.4l-0.8,0v-0.4h6.5v14.5l0,1.1c0,0.6,0,1,0.1,1.1c0.1,0.2,0.4,0.3,0.8,0.3l0.6,0
		V46.4z"/>
	<path class="st1" d="M173.6,46.4h-7.3v-0.4c0.6,0,0.9-0.1,1-0.3c0.1-0.2,0.2-0.6,0.2-1.3l0-1.1v-4.9l0-1c0-0.7-0.1-1.2-0.3-1.5
		s-0.5-0.5-0.9-0.5c-0.3,0-0.6,0.1-0.9,0.4c-0.3,0.3-0.5,0.8-0.7,1.6v5.8l0,1.1c0,0.5,0,0.9,0.1,1.1s0.4,0.4,0.9,0.4v0.4H159v-0.4
		c0.5,0,0.9-0.1,1-0.3c0.1-0.2,0.2-0.6,0.2-1.3l0-1.1v-4.9l0-1c0-0.7-0.1-1.2-0.3-1.5s-0.5-0.5-0.9-0.5c-0.5,0-0.9,0.2-1.1,0.5
		c-0.2,0.4-0.4,0.7-0.5,1.1v6.2l0,1.1c0,0.5,0,0.9,0.1,1.1s0.4,0.4,0.9,0.4v0.4h-7.2v-0.4l0.5,0c0.5,0,0.7-0.2,0.8-0.3
		c0.1-0.2,0.1-0.6,0.1-1.2l0-1.1v-5.8l0-1c0-0.4-0.1-0.7-0.1-0.9c-0.1-0.2-0.4-0.3-0.9-0.4l-0.6,0V35h6.1v1.8
		c0.1-0.4,0.4-0.9,0.9-1.4c0.4-0.5,1.3-0.7,2.6-0.7c0.9,0,1.7,0.2,2.3,0.6c0.7,0.4,1.2,0.9,1.5,1.7c0.1-0.3,0.3-0.7,0.6-1.3
		c0.3-0.6,1.3-0.9,2.9-0.9c1.1,0,2,0.3,2.8,0.9c0.8,0.6,1.2,1.4,1.2,2.4v5.4l0,1.1c0,0.6,0,1,0.1,1.2c0.1,0.2,0.4,0.3,0.9,0.3l0.4,0
		V46.4z"/>
	<path class="st1" d="M186.2,42.8c-0.5,1.2-1.2,2.1-2.2,2.8s-2.2,1-3.5,1c-1.9,0-3.5-0.5-4.7-1.6c-1.2-1.1-1.8-2.5-1.8-4.4
		c0-1.7,0.6-3.2,1.9-4.3c1.3-1.1,2.8-1.7,4.5-1.7c1.8,0,3.3,0.5,4.2,1.6c1,1,1.5,2.3,1.5,3.8h-7.4c0,0.6,0,1.2,0.1,1.8
		s0.3,1.2,0.5,1.7s0.6,1,1.1,1.4s1,0.5,1.7,0.5c1,0,1.8-0.3,2.3-0.8c0.6-0.6,1-1.2,1.3-2.1L186.2,42.8z M182,39.7c0-0.2,0-0.4,0-0.6
		s0-0.5,0-0.9c0-1-0.1-1.7-0.4-2.2c-0.2-0.5-0.7-0.8-1.2-0.8c-0.5,0-0.9,0.2-1.1,0.7c-0.2,0.5-0.3,1.2-0.4,2.2l0,1.5H182z"/>
	<path class="st1" d="M193,32.3c0,1-0.4,2.2-1.3,3.8s-1.3,3.3-1.3,5.2h-0.4c0-1.7-0.4-3.6-1.3-5.5c-0.9-1.9-1.3-3.1-1.3-3.6
		c0-0.9,0.3-1.7,0.9-2.5c0.6-0.8,1.2-1.1,1.9-1.1c0.6,0,1.2,0.4,1.8,1.1S193,31.4,193,32.3z M192.6,44.3c0,0.6-0.2,1.2-0.7,1.6
		c-0.5,0.4-1,0.7-1.7,0.7c-0.6,0-1.2-0.2-1.6-0.7c-0.5-0.4-0.7-1-0.7-1.6c0-0.6,0.2-1.2,0.7-1.6c0.5-0.4,1-0.7,1.6-0.7
		c0.7,0,1.2,0.2,1.7,0.6C192.4,43.1,192.6,43.6,192.6,44.3z"/>
</g>
<g>
	<g>
		<path class="st1" d="M56.6,43.4v-8.4l-5,3.6l5,4.9C56.6,43.5,56.6,43.5,56.6,43.4z M43.9,38.7l-5-3.6v8.4c0,0.1,0,0.1,0,0.2
			L43.9,38.7z M54.9,47.2H40.6c-2.1,0-3.7-1.7-3.7-3.7V33.1c0-2.1,1.7-3.7,3.7-3.7h14.2c2.1,0,3.7,1.7,3.7,3.7v10.3
			C58.6,45.5,56.9,47.2,54.9,47.2z M47.7,40.6c-0.7,0-1.5-0.2-2.1-0.7l-0.1-0.1l-5.4,5.3c0.1,0.1,0.3,0.1,0.5,0.1h14.2
			c0.2,0,0.3,0,0.5-0.1L50,39.9l-0.1,0.1C49.2,40.4,48.5,40.6,47.7,40.6z M46.8,38.3c0.3,0.2,0.6,0.3,1,0.3c0.3,0,0.7-0.1,1-0.3
			l7.9-5.7c-0.2-0.8-0.9-1.3-1.7-1.3H40.6c-0.8,0-1.5,0.6-1.7,1.3L46.8,38.3z"/>
	</g>
</g>
<g>
	<ellipse class="st0" cx="8.7" cy="95.1" rx="9.1" ry="6.6"/>
</g>
</svg>
