<?xml version="1.0" encoding="utf-8"?>
<!-- Generator: Adobe Illustrator 21.1.0, SVG Export Plug-In . SVG Version: 6.00 Build 0)  -->
<svg version="1.1" id="Warstwa_1" xmlns="http://www.w3.org/2000/svg" xmlns:xlink="http://www.w3.org/1999/xlink" x="0px" y="0px"
	 viewBox="0 0 85 85" style="enable-background:new 0 0 85 85;" xml:space="preserve">
<style type="text/css">
	.st0{fill:url(#SVGID_1_);}
	.st1{fill:url(#SVGID_2_);}
	.st2{fill:url(#SVGID_3_);}
	.st3{fill:url(#SVGID_4_);}
	.st4{fill:url(#SVGID_5_);}
	.st5{fill:url(#SVGID_6_);}
	.st6{fill:url(#SVGID_7_);}
</style>
<g>
	<linearGradient id="SVGID_1_" gradientUnits="userSpaceOnUse" x1="5.6228" y1="42.3656" x2="77.8444" y2="42.3656">
		<stop  offset="0" style="stop-color:#94C687"/>
		<stop  offset="1" style="stop-color:#95BEB4"/>
	</linearGradient>
	<path class="st0" d="M67.3,16.8C60.4,10,51.4,6.3,41.7,6.3S23,10,16.2,16.8C9.4,23.7,5.6,32.7,5.6,42.4s3.8,18.7,10.6,25.5
		c6.8,6.8,15.9,10.6,25.5,10.6s18.7-3.8,25.5-10.6c6.8-6.8,10.6-15.9,10.6-25.5S74.1,23.7,67.3,16.8L67.3,16.8z M65.6,66.2
		c-6.4,6.4-14.9,9.9-23.9,9.9c-9,0-17.5-3.5-23.9-9.9C11.5,59.9,8,51.4,8,42.4c0-9,3.5-17.5,9.9-23.9c6.4-6.4,14.9-9.9,23.9-9.9
		c9,0,17.5,3.5,23.9,9.9c6.4,6.4,9.9,14.9,9.9,23.9C75.5,51.4,72,59.9,65.6,66.2L65.6,66.2z M65.6,66.2"/>
	<linearGradient id="SVGID_2_" gradientUnits="userSpaceOnUse" x1="15.6058" y1="42.3656" x2="67.8615" y2="42.3656">
		<stop  offset="0" style="stop-color:#94C687"/>
		<stop  offset="1" style="stop-color:#95BEB4"/>
	</linearGradient>
	<path class="st1" d="M41.7,16.2c-14.4,0-26.1,11.7-26.1,26.1c0,14.4,11.7,26.1,26.1,26.1s26.1-11.7,26.1-26.1
		C67.9,28,56.1,16.2,41.7,16.2L41.7,16.2z M41.7,66.2c-13.1,0-23.8-10.7-23.8-23.8c0-13.1,10.7-23.8,23.8-23.8
		c13.1,0,23.8,10.7,23.8,23.8C65.5,55.5,54.9,66.2,41.7,66.2L41.7,66.2z M41.7,66.2"/>
	<linearGradient id="SVGID_3_" gradientUnits="userSpaceOnUse" x1="19.3493" y1="42.3656" x2="64.118" y2="42.3656">
		<stop  offset="0" style="stop-color:#94C687"/>
		<stop  offset="1" style="stop-color:#95BEB4"/>
	</linearGradient>
	<path class="st2" d="M41.7,20c-12.3,0-22.4,10-22.4,22.4s10,22.4,22.4,22.4s22.4-10,22.4-22.4S54.1,20,41.7,20L41.7,20z M41.7,62.4
		c-11.1,0-20-9-20-20c0-11.1,9-20,20-20c11.1,0,20,9,20,20C61.8,53.4,52.8,62.4,41.7,62.4L41.7,62.4z M41.7,62.4"/>
	<linearGradient id="SVGID_4_" gradientUnits="userSpaceOnUse" x1="23.0938" y1="42.3661" x2="60.3745" y2="42.3661">
		<stop  offset="0" style="stop-color:#94C687"/>
		<stop  offset="1" style="stop-color:#95BEB4"/>
	</linearGradient>
	<path class="st3" d="M41.7,23.7c-10.3,0-18.6,8.4-18.6,18.6S31.5,61,41.7,61s18.6-8.4,18.6-18.6S52,23.7,41.7,23.7L41.7,23.7z
		 M57.8,44.9H46.1l10.1-10.1c1.2,2.3,1.8,4.8,1.8,7.5C58,43.2,58,44.1,57.8,44.9L57.8,44.9z M40.7,39.8h2.1l1.5,1.5v2.1l-1.5,1.5
		h-2.1l-1.5-1.5v-2.1L40.7,39.8z M54.9,32.8l-8.3,8.3V26.8C50,27.9,52.9,30,54.9,32.8L54.9,32.8z M44.3,26.3V38L34.2,27.9
		c2.3-1.2,4.8-1.8,7.5-1.8C42.6,26.1,43.5,26.1,44.3,26.3L44.3,26.3z M32.2,29.2l8.3,8.3H26.2C27.2,34.1,29.4,31.2,32.2,29.2
		L32.2,29.2z M25.6,39.8h11.7L27.3,49.9c-1.2-2.3-1.8-4.8-1.8-7.5C25.4,41.5,25.5,40.6,25.6,39.8L25.6,39.8z M28.5,51.9l8.3-8.3
		v14.3C33.5,56.9,30.6,54.7,28.5,51.9L28.5,51.9z M39.2,58.5V46.7l10.1,10.1c-2.3,1.2-4.8,1.8-7.5,1.8C40.9,58.7,40,58.6,39.2,58.5
		L39.2,58.5z M51.3,55.6L43,47.3h14.3C56.2,50.6,54.1,53.5,51.3,55.6L51.3,55.6z M51.3,55.6"/>
	<linearGradient id="SVGID_5_" gradientUnits="userSpaceOnUse" x1="28.5913" y1="13.6647" x2="54.8764" y2="13.6647">
		<stop  offset="0" style="stop-color:#94C687"/>
		<stop  offset="1" style="stop-color:#95BEB4"/>
	</linearGradient>
	<path class="st4" d="M30.2,16c3.6-1.6,7.5-2.4,11.5-2.4c4,0,7.9,0.8,11.5,2.4c0.2,0.1,0.3,0.1,0.5,0.1c0.5,0,0.9-0.3,1.1-0.7
		c0.3-0.6,0-1.3-0.6-1.5c-3.9-1.7-8.1-2.6-12.4-2.6c-4.3,0-8.5,0.9-12.4,2.6c-0.6,0.3-0.9,0.9-0.6,1.5C28.9,16,29.6,16.2,30.2,16
		L30.2,16z M30.2,16"/>
	<linearGradient id="SVGID_6_" gradientUnits="userSpaceOnUse" x1="43.0601" y1="71.0156" x2="54.8764" y2="71.0156">
		<stop  offset="0" style="stop-color:#94C687"/>
		<stop  offset="1" style="stop-color:#95BEB4"/>
	</linearGradient>
	<path class="st5" d="M53.2,68.7c-2.9,1.3-6,2-9.1,2.3c-0.6,0.1-1.1,0.6-1.1,1.3c0.1,0.6,0.6,1.1,1.2,1.1c0,0,0.1,0,0.1,0
		c3.4-0.3,6.7-1.1,9.8-2.5c0.6-0.3,0.9-0.9,0.6-1.5C54.5,68.8,53.8,68.5,53.2,68.7L53.2,68.7z M53.2,68.7"/>
	<linearGradient id="SVGID_7_" gradientUnits="userSpaceOnUse" x1="28.5913" y1="71.0159" x2="40.4079" y2="71.0159">
		<stop  offset="0" style="stop-color:#94C687"/>
		<stop  offset="1" style="stop-color:#95BEB4"/>
	</linearGradient>
	<path class="st6" d="M39.3,71c-3.1-0.3-6.2-1-9.1-2.3c-0.6-0.3-1.3,0-1.5,0.6c-0.3,0.6,0,1.3,0.6,1.5c3.1,1.4,6.4,2.2,9.8,2.5
		c0,0,0.1,0,0.1,0c0.6,0,1.1-0.5,1.2-1.1C40.5,71.7,40,71.1,39.3,71L39.3,71z M39.3,71"/>
</g>
</svg>
