<?xml version="1.0" encoding="utf-8"?>
<!-- Generator: Adobe Illustrator 21.1.0, SVG Export Plug-In . SVG Version: 6.00 Build 0)  -->
<svg version="1.1" id="Warstwa_1" xmlns="http://www.w3.org/2000/svg" xmlns:xlink="http://www.w3.org/1999/xlink" x="0px" y="0px"
	 viewBox="0 0 80 60" style="enable-background:new 0 0 80 60;" xml:space="preserve">
<style type="text/css">
	.st0{fill:url(#SVGID_1_);}
</style>
<g>
	<linearGradient id="SVGID_1_" gradientUnits="userSpaceOnUse" x1="10.7891" y1="30.1988" x2="68.8049" y2="30.1988">
		<stop  offset="0" style="stop-color:#94C687"/>
		<stop  offset="1" style="stop-color:#95BEB4"/>
	</linearGradient>
	<path class="st0" d="M39.8,1.2c5.2,0,10.1,1.3,14.5,3.9c4.4,2.6,8,6.1,10.6,10.6c2.6,4.4,3.9,9.3,3.9,14.5s-1.3,10.1-3.9,14.5
		c-2.6,4.4-6.1,8-10.6,10.6c-4.4,2.6-9.3,3.9-14.5,3.9s-10.1-1.3-14.5-3.9c-4.4-2.6-8-6.1-10.6-10.6c-2.6-4.4-3.9-9.3-3.9-14.5
		s1.3-10.1,3.9-14.5c2.6-4.4,6.1-8,10.6-10.6C29.7,2.5,34.6,1.2,39.8,1.2z M15,30.2c0,3.1,0.6,6.1,1.7,8.9c1.1,2.8,2.7,5.4,4.7,7.7
		c2.1-3.7,5-7,8.7-9.9c4-3.3,8.1-5.5,12.4-6.7c-0.5-1.4-1.2-2.8-2-4.2c-5.2,1.6-10.9,2.6-17,3.2c-3.3,0.2-6.1,0.4-8.5,0.4V30.2z
		 M29.3,7.9c-3.5,1.6-6.5,4-8.9,7s-4,6.5-4.8,10.3c2.1,0,4.6-0.1,7.5-0.4c5.4-0.5,10.5-1.4,15.3-2.7C35.6,17.1,32.5,12.3,29.3,7.9z
		 M24.6,49.7c3.6,2.9,7.6,4.6,12.1,5.1c4.5,0.5,8.8-0.1,12.8-1.8c-1-6-2.8-12.2-5.3-18.7c-4.8,1.6-9,3.9-12.6,7
		C28.3,44,26,46.8,24.6,49.7z M56.2,11.7c-3-2.7-6.5-4.6-10.4-5.6c-3.9-1-7.8-1-11.8-0.1c3.4,4.4,6.4,9.3,9.2,14.5
		c3.7-1.3,7-3.1,9.7-5.4C54.4,14,55.5,12.8,56.2,11.7z M59,14.5c-0.9,1.2-2.1,2.4-3.6,3.7c-3,2.5-6.4,4.5-10.2,6.1
		c0.7,1.6,1.4,3.2,2.1,4.9c3.5-0.5,7.3-0.5,11.5-0.1c2.2,0.2,4.1,0.5,5.8,0.8c-0.1-2.9-0.6-5.6-1.5-8.2C62.1,19.1,60.8,16.7,59,14.5
		z M53.6,50.8c2.8-1.9,5.1-4.2,7-7.1c1.9-2.9,3.1-6,3.6-9.5c-1.4-0.5-3.1-0.8-5.1-1.1c-3.6-0.5-7-0.5-10.3,0
		C51.1,39.4,52.7,45.2,53.6,50.8z"/>
</g>
</svg>
