<?xml version="1.0" encoding="utf-8"?>
<!-- Generator: Adobe Illustrator 21.1.0, SVG Export Plug-In . SVG Version: 6.00 Build 0)  -->
<svg version="1.1" id="Warstwa_1" xmlns="http://www.w3.org/2000/svg" xmlns:xlink="http://www.w3.org/1999/xlink" x="0px" y="0px"
	 viewBox="0 0 85 85" style="enable-background:new 0 0 85 85;" xml:space="preserve">
<style type="text/css">
	.st0{fill:url(#SVGID_1_);}
</style>
<linearGradient id="SVGID_1_" gradientUnits="userSpaceOnUse" x1="14.2172" y1="42.3656" x2="70.13" y2="42.3656">
	<stop  offset="0" style="stop-color:#94C687"/>
	<stop  offset="1" style="stop-color:#95BEB4"/>
</linearGradient>
<path class="st0" d="M68.6,35.4c-3.8,1.3-7,4-9,7.5c-1.9-3.5-5.1-6.2-9-7.5l-1.5-0.5v7.5c0,3.2,0.8,6.4,2.2,9.3c1,2,2.3,3.8,3.9,5.4
	l1.2,1.3c-0.3,1.5-1,2.8-2.1,3.9C53,63.7,51,64.5,49,64.5c-3.5,0-6.5-2.4-7.4-5.7l-0.5-2l3.9-2.2c1.1-0.6,1.8-1.8,1.8-3V22.6
	c0-9-7.3-16.3-16.3-16.3c-9,0-16.3,7.3-16.3,16.3v28.9c0,1.3,0.7,2.4,1.8,3l4,2.3c-0.6,4.6,0.5,9.2,3,13.1l0.1,0.1
	c3.5,5.3,9.5,8.5,15.9,8.5h5.3c7.6,0,14.5-4.8,17.2-11.8c1-2.6,1.4-5.4,1.2-8.2l1.4-1.3c1.6-1.6,2.9-3.4,3.9-5.4
	c1.4-2.9,2.2-6.1,2.2-9.3v-7.5L68.6,35.4z M16.5,22.6c0-7.7,6.3-14,14-14c7.7,0,14,6.3,14,14v16.3c-1-0.7-2.2-1.2-3.5-1.2h-4.7v-0.4
	c3.5-2,5.8-5.8,5.8-10.1v-6.6l-1-0.4l1.5-2.5l-3-1.3l-2.2-2.7l-2.2,2.7L34,17l-3.4-1.5l-11.6,5.2v6.6c0,4.3,2.3,8.1,5.8,10.1v0.4H20
	c-1.3,0-2.5,0.5-3.5,1.2V22.6z M37.5,23.2l2.3,0.6v3.4c0,5.1-4.2,9.3-9.3,9.3s-9.3-4.2-9.3-9.3v-5.1l9.3-4.1l2.7,1.2l0.8,1.4
	l0.3,3.4L37.5,23.2z M35.7,18.8l1.1-0.5l0.7-0.9l0.7,0.9l1.1,0.5l-0.6,1.1l-0.1,1.2l-1.1-0.3l-1.1,0.3l-0.1-1.2L35.7,18.8z
	 M17.1,52.5c-0.4-0.2-0.6-0.6-0.6-1v-8c0-1.9,1.6-3.5,3.5-3.5h7v-1.7c1.1,0.3,2.3,0.5,3.5,0.5c1.2,0,2.4-0.2,3.5-0.5V40h7
	c1.9,0,3.5,1.6,3.5,3.5v8c0,0.4-0.2,0.8-0.6,1l-6.5,3.7c-0.1,0.1-0.3,0.1-0.5,0.1h-0.8c-0.5,0-1-0.4-1-1c0-0.4,0.2-0.7,0.5-0.9
	l6.4-3.2v-5.4c0-1.9-1.6-3.5-3.5-3.5c-2.5,0-4.9,0.6-7.1,1.7l-1,0.5l-1-0.5c-2.2-1.1-4.7-1.7-7.1-1.7c-1.9,0-3.5,1.6-3.5,3.5v5.4
	l6.4,3.2c0.3,0.2,0.6,0.5,0.6,0.9c0,0.5-0.4,1-1,1h-0.8c-0.2,0-0.3,0-0.5-0.1L17.1,52.5z M34.7,52.4c-0.7,0.4-1.2,0.9-1.5,1.6h-5.3
	c-0.3-0.7-0.8-1.3-1.5-1.6l-5.2-2.6v-3.9c0-0.6,0.5-1.2,1.2-1.2c2.1,0,4.2,0.5,6.1,1.4l2.1,1l2.1-1c1.9-0.9,4-1.4,6.1-1.4
	c0.6,0,1.2,0.5,1.2,1.2v3.9L34.7,52.4z M59.3,65.8C57,72,50.9,76.1,44.3,76.1h-5.3c-5.6,0-10.8-2.8-13.9-7.5l-0.1-0.1
	c-2.1-3.1-3-6.8-2.8-10.5l0.3,0.2c0.5,0.3,1.1,0.4,1.6,0.4h0.8c1.5,0,2.7-1,3.2-2.3h5c0.4,1.3,1.7,2.3,3.2,2.3h0.8
	c0.6,0,1.1-0.2,1.6-0.4l0.5-0.3l0.3,1.3c1.1,4.4,5.1,7.5,9.6,7.5c2.7,0,5.2-1,7.1-2.9c1.5-1.5,2.5-3.5,2.8-5.6l0.6-4.1
	c0-0.2,0.3-0.2,0.3,0l0.5,3.8C60.6,60.6,60.3,63.3,59.3,65.8z M67.8,42.4c0,2.8-0.7,5.7-1.9,8.3c-0.9,1.8-2.1,3.4-3.4,4.8l-0.1,0.1
	l-0.2-1.6c-0.2-1.2-1.2-2.2-2.5-2.2c-1.2,0-2.3,0.9-2.5,2.1l-0.2,1.6l0,0c-1.4-1.4-2.6-3-3.5-4.8c-1.3-2.5-1.9-5.4-1.9-8.3v-4.1
	c3.3,1.6,5.9,4.5,7,8l1.1,3.3l1.1-3.3c1.2-3.5,3.7-6.4,7-8V42.4z"/>
</svg>
