<?xml version="1.0" encoding="utf-8"?>
<!-- Generator: Adobe Illustrator 21.1.0, SVG Export Plug-In . SVG Version: 6.00 Build 0)  -->
<svg version="1.1" id="Warstwa_1" xmlns="http://www.w3.org/2000/svg" xmlns:xlink="http://www.w3.org/1999/xlink" x="0px" y="0px"
	 viewBox="0 0 85 85" style="enable-background:new 0 0 85 85;" xml:space="preserve">
<style type="text/css">
	.st0{fill:url(#SVGID_1_);}
	.st1{fill:url(#SVGID_2_);}
	.st2{fill:url(#SVGID_3_);}
	.st3{fill:url(#SVGID_4_);}
</style>
<g>
	<linearGradient id="SVGID_1_" gradientUnits="userSpaceOnUse" x1="8.9601" y1="42.4035" x2="81.387" y2="42.4035">
		<stop  offset="0" style="stop-color:#EC9784"/>
		<stop  offset="1" style="stop-color:#F6D0C1"/>
	</linearGradient>
	<path class="st0" d="M79.2,28.7c-1.3-0.8-2.9-0.7-4.2,0.1l-8.9,5.4v-1c0-3.4-2.4-6.2-5.6-6.9c2.5-2.1,4-5.2,4-8.6
		c0-6.2-5.1-11.3-11.3-11.3c-6.2,0-11.3,5.1-11.3,11.3c0,3.4,1.5,6.4,3.8,8.5H27.8c2.4-2.1,3.8-5.1,3.8-8.5
		c0-6.2-5.1-11.3-11.3-11.3C14.1,6.2,9,11.3,9,17.5c0,3.6,1.7,6.9,4.4,9c-2.6,1-4.5,3.6-4.5,6.6v20.4c0,3.9,3.2,7.1,7.1,7.1h0.3
		c0.8,0,1.4-0.6,1.4-1.4s-0.6-1.4-1.4-1.4H16c-2.3,0-4.2-1.9-4.2-4.2V35.9h13.8c0.8,0,1.4-0.6,1.4-1.4c0-0.8-0.6-1.4-1.4-1.4H11.8
		c0-2.3,1.9-4.2,4.2-4.2h43c2.3,0,4.2,1.9,4.2,4.2v20.4c0,2.3-1.9,4.2-4.2,4.2H26.6c-0.8,0-1.4,0.6-1.4,1.4s0.6,1.4,1.4,1.4h2.2
		L20,75.8h-9.6c-0.8,0-1.4,0.6-1.4,1.4c0,0.8,0.6,1.4,1.4,1.4h54.2c0.8,0,1.4-0.6,1.4-1.4c0-0.8-0.6-1.4-1.4-1.4H55l-8.8-15.3H59
		c3.9,0,7.1-3.2,7.1-7.1v-2.7l8.9,5.4c0.7,0.4,1.4,0.6,2.2,0.6c0.7,0,1.4-0.2,2.1-0.6c1.3-0.8,2.1-2.1,2.1-3.7V32.3
		C81.4,30.8,80.6,29.4,79.2,28.7z M20.4,26c-4.7,0-8.5-3.8-8.5-8.5S15.7,9,20.4,9s8.5,3.8,8.5,8.5S25,26,20.4,26z M53.2,26
		c-4.7,0-8.5-3.8-8.5-8.5S48.5,9,53.2,9c4.7,0,8.5,3.8,8.5,8.5S57.9,26,53.2,26z M23.3,75.8l8.8-15.3h2.9l-8.8,15.3H23.3z
		 M29.5,75.8l8-13.9l8,13.9H29.5z M51.8,75.8h-3L40,60.5h2.9L51.8,75.8z M78.6,52.5c0,0.7-0.5,1.1-0.7,1.2c-0.2,0.1-0.8,0.4-1.4,0
		l-10.3-6.2v-10l10.3-6.2c0.6-0.4,1.2-0.1,1.4,0c0.2,0.1,0.7,0.5,0.7,1.2V52.5z"/>
	<linearGradient id="SVGID_2_" gradientUnits="userSpaceOnUse" x1="43.751" y1="34.4736" x2="46.5961" y2="34.4736">
		<stop  offset="0" style="stop-color:#EC9784"/>
		<stop  offset="1" style="stop-color:#F6D0C1"/>
	</linearGradient>
	<path class="st1" d="M45.2,35.9c0.8,0,1.4-0.6,1.4-1.4c0-0.8-0.6-1.4-1.4-1.4h0c-0.8,0-1.4,0.6-1.4,1.4
		C43.8,35.3,44.4,35.9,45.2,35.9L45.2,35.9z"/>
	<linearGradient id="SVGID_3_" gradientUnits="userSpaceOnUse" x1="16.2846" y1="17.503" x2="25.0549" y2="17.503">
		<stop  offset="0" style="stop-color:#EC9784"/>
		<stop  offset="1" style="stop-color:#F6D0C1"/>
	</linearGradient>
	<path class="st2" d="M20.7,13.1c-2.4,0-4.4,2-4.4,4.4c0,2.4,2,4.4,4.4,4.4c2.4,0,4.4-2,4.4-4.4C25.1,15.1,23.1,13.1,20.7,13.1z
		 M20.7,19.1c-0.9,0-1.6-0.7-1.6-1.6c0-0.9,0.7-1.6,1.6-1.6c0.9,0,1.6,0.7,1.6,1.6C22.2,18.4,21.5,19.1,20.7,19.1z"/>
	<linearGradient id="SVGID_4_" gradientUnits="userSpaceOnUse" x1="48.3643" y1="17.503" x2="57.134" y2="17.503">
		<stop  offset="0" style="stop-color:#EC9784"/>
		<stop  offset="1" style="stop-color:#F6D0C1"/>
	</linearGradient>
	<path class="st3" d="M52.7,13.1c-2.4,0-4.4,2-4.4,4.4c0,2.4,2,4.4,4.4,4.4c2.4,0,4.4-2,4.4-4.4C57.1,15.1,55.2,13.1,52.7,13.1z
		 M52.7,19.1c-0.9,0-1.6-0.7-1.6-1.6c0-0.9,0.7-1.6,1.6-1.6c0.9,0,1.6,0.7,1.6,1.6C54.3,18.4,53.6,19.1,52.7,19.1z"/>
</g>
</svg>
