<?xml version="1.0" encoding="utf-8"?>
<!-- Generator: Adobe Illustrator 21.1.0, SVG Export Plug-In . SVG Version: 6.00 Build 0)  -->
<svg version="1.1" id="Warstwa_1" xmlns="http://www.w3.org/2000/svg" xmlns:xlink="http://www.w3.org/1999/xlink" x="0px" y="0px"
	 viewBox="0 0 85 85" style="enable-background:new 0 0 85 85;" xml:space="preserve">
<style type="text/css">
	.st0{fill:url(#SVGID_1_);}
</style>
<linearGradient id="SVGID_1_" gradientUnits="userSpaceOnUse" x1="13.623" y1="42.3656" x2="71.1702" y2="42.3656">
	<stop  offset="0" style="stop-color:#EC9784"/>
	<stop  offset="1" style="stop-color:#F6D0C1"/>
</linearGradient>
<path class="st0" d="M71.1,75L71.1,75C71.1,75,71.1,75,71.1,75l-1.8-9.5c0,0,0,0,0,0c0,0,0-0.1,0-0.1c0,0,0,0,0,0c0,0,0-0.1,0-0.1
	c0,0,0,0,0,0c0,0,0-0.1-0.1-0.1c0,0,0,0,0,0c0,0,0,0,0-0.1l-7.3-9.5l4.7-4.7c2.3-2.3,3.8-5.4,4.1-8.6c0.3-3.2-0.4-6.4-2.1-9.2
	c-0.3-0.5-1-0.6-1.5-0.3c-0.5,0.3-0.6,1-0.3,1.5c1.4,2.3,2.1,5.1,1.8,7.8c-0.3,2.8-1.5,5.3-3.5,7.3l-4.5,4.5l-5.7-7.5l2.2-2.9
	c0.4-0.5,0.3-1.1-0.2-1.5c-0.5-0.4-1.1-0.3-1.5,0.2l-6.3,8.1l0,0c0,0,0,0,0,0l-9.7,3.2c-0.6,0.2-0.9,0.8-0.7,1.3
	c0.1,0.4,0.6,0.7,1,0.7c0.1,0,0.2,0,0.3-0.1l3.4-1.1l7.2,9.4l-7.4,7.3c-0.3,0.3-0.8,0.3-1,0L20.5,49.4c-4.8-4.8-4.8-12.6,0-17.4
	c4.8-4.8,12.6-4.8,17.4,0l2.9,2.9c0.5,0.5,1.3,0.8,2,0.8s1.5-0.3,2-0.8l2.9-2.9c2.2-2.2,5.1-3.5,8.2-3.6c3.1-0.1,6.1,0.9,8.4,2.9
	c0.4,0.4,1.1,0.3,1.5-0.1c0.4-0.4,0.3-1.1-0.1-1.5c-2.7-2.3-6.2-3.5-9.8-3.4c-3.6,0.1-7,1.6-9.6,4.2l-2,2L33.3,18l0.1-0.1
	c0.5-0.4,0.6-1,0.2-1.5L30.2,12c-0.4-0.5-1-0.6-1.5-0.2l-0.1,0.1l-2.9-3.8c-1.6-2-4.5-2.4-6.6-0.9L15.5,10c-1.8,1.4-2.4,3.9-1.3,5.9
	c0.2,0.4,0.6,0.6,0.9,0.6c0.2,0,0.3,0,0.5-0.1c0.5-0.3,0.7-0.9,0.4-1.4c-0.6-1.1-0.3-2.5,0.7-3.2l3.7-2.8C21.6,8,23.2,8.3,24,9.4
	l2.9,3.8l-7.8,5.9l-0.7-0.9c-0.4-0.5-1-0.6-1.5-0.2c-0.5,0.4-0.6,1-0.2,1.5l0.7,0.9l-0.1,0.1c-0.5,0.4-0.6,1-0.2,1.5l3.4,4.4
	c0.2,0.3,0.5,0.4,0.8,0.4c0.2,0,0.4-0.1,0.6-0.2l0.1-0.1l0.9,1.1c-1.5,0.7-2.8,1.6-4,2.8c-5.6,5.6-5.6,14.7,0,20.4l21.8,21.8
	c0.6,0.6,1.3,0.8,2,0.8c0.7,0,1.5-0.3,2-0.8l7.2-7.1l6.1,8c0,0,0,0,0,0c0,0,0,0,0,0c0,0,0,0,0.1,0.1c0,0,0,0,0,0c0,0,0,0,0.1,0.1
	c0,0,0,0,0,0c0,0,0.1,0,0.1,0.1c0,0,0,0,0,0l0,0c0,0,0,0,0,0l8.5,4.3l0,0l0,0l0,0c0.4,0.2,0.9,0.3,1.3,0.3c0.6,0,1.2-0.2,1.7-0.6
	C70.9,77.2,71.3,76.1,71.1,75z M28.7,21.6l3.9,5.1c-1.1-0.3-2.1-0.4-3.2-0.4L26.8,23L28.7,21.6z M42.5,33.5c-0.1,0-0.2-0.1-0.2-0.2
	l-2.9-2.9c-0.9-0.9-1.9-1.7-3-2.3l-6-7.9l1.3-1L42.5,33.5z M21.6,24.3l-2.1-2.8l9.7-7.4l2.1,2.8L21.6,24.3 M23.9,25.2l1.3-1l1.7,2.2
	c-0.6,0.1-1.2,0.2-1.7,0.4L23.9,25.2z M66.8,65.5l-1.3,1l-13-17.1l1-1.3L66.8,65.5z M62,69.2L49.3,52.5l0.8-0.3c0,0,0,0,0,0
	c0,0,0,0,0,0c0,0,0,0,0.1,0c0,0,0,0,0,0c0,0,0,0,0.1,0c0,0,0,0,0,0c0,0,0,0,0.1,0c0,0,0,0,0,0c0,0,0,0,0.1-0.1c0,0,0,0,0,0
	c0,0,0.1-0.1,0.1-0.1c0,0,0,0,0,0l0,0c0,0,0,0,0,0l0.6-0.7l12.7,16.6L62,69.2z M47.2,53.2l13.2,17.3l-1.3,1L45.6,53.7L47.2,53.2z
	 M60.9,72.7C60.9,72.7,60.9,72.7,60.9,72.7C60.9,72.7,60.9,72.7,60.9,72.7l6.7-5.1c0,0,0,0,0,0c0,0,0,0,0,0l0,0l0.7,4
	c-0.1,0-0.1,0-0.2,0.1c0,0,0,0-0.1,0c-0.1,0-0.2,0.1-0.4,0.1c0,0-0.1,0-0.1,0c-0.1,0-0.2,0.1-0.3,0.1c0,0-0.1,0-0.1,0
	c-0.1,0.1-0.2,0.1-0.3,0.2c0,0,0,0,0,0c-0.1,0.1-0.2,0.1-0.3,0.2c0,0-0.1,0-0.1,0.1c-0.1,0.1-0.2,0.1-0.3,0.2c0,0,0,0,0,0
	c-0.1,0.1-0.2,0.2-0.3,0.2c0,0,0,0-0.1,0.1c-0.1,0.1-0.1,0.1-0.2,0.2c0,0,0,0-0.1,0.1c-0.1,0.1-0.2,0.2-0.3,0.3c0,0,0,0,0,0
	c-0.1,0.1-0.1,0.2-0.2,0.3c0,0,0,0.1-0.1,0.1c-0.1,0.1-0.1,0.2-0.2,0.3c0,0,0,0,0,0c-0.1,0.1-0.1,0.2-0.2,0.3L60.9,72.7L60.9,72.7z
	 M68.7,76.2c-0.1,0.1-0.4,0.3-0.8,0.1l-1.5-0.7c0,0,0,0,0,0c0.1-0.1,0.1-0.2,0.2-0.2c0,0,0.1-0.1,0.1-0.1c0-0.1,0.1-0.1,0.2-0.2
	c0,0,0.1-0.1,0.1-0.1c0.1-0.1,0.1-0.1,0.2-0.2c0,0,0.1-0.1,0.1-0.1c0.1-0.1,0.1-0.1,0.2-0.2c0,0,0,0,0.1,0c0.1-0.1,0.2-0.1,0.3-0.2
	c0,0,0,0,0.1,0c0.1,0,0.1-0.1,0.2-0.1c0,0,0.1,0,0.1-0.1c0.1,0,0.1-0.1,0.2-0.1c0,0,0.1,0,0.1-0.1c0.1,0,0.1-0.1,0.2-0.1
	c0,0,0,0,0.1,0l0.3,1.7C69.1,75.9,68.9,76.1,68.7,76.2z"/>
</svg>
