<?xml version="1.0" encoding="utf-8"?>
<!-- Generator: Adobe Illustrator 21.1.0, SVG Export Plug-In . SVG Version: 6.00 Build 0)  -->
<svg version="1.1" id="Warstwa_1" xmlns="http://www.w3.org/2000/svg" xmlns:xlink="http://www.w3.org/1999/xlink" x="0px" y="0px"
	 viewBox="0 0 80 60" style="enable-background:new 0 0 80 60;" xml:space="preserve">
<style type="text/css">
	.st0{fill:url(#SVGID_1_);}
</style>
<linearGradient id="SVGID_1_" gradientUnits="userSpaceOnUse" x1="1.2998" y1="30.1988" x2="79" y2="30.1988">
	<stop  offset="0" style="stop-color:#94C687"/>
	<stop  offset="1" style="stop-color:#95BEB4"/>
</linearGradient>
<path class="st0" d="M72.5,12.4H49.9V5.9h22.7V12.4z M78.1,44.8c-1.4,4.2-6.6,9.7-16.5,9.7c-10,0-18-5.6-18-18.4
	c0-12.7,7.5-19.2,17.7-19.2c10,0,16.1,5.8,17.4,14.3c0.3,1.6,0.4,3.8,0.3,6.9H53c0.4,10.4,11.3,10.7,14.9,6.6H78.1z M53.2,31.8h16.1
	c-0.3-5-3.7-7.2-8-7.2C56.5,24.6,53.9,27.1,53.2,31.8z M22.2,54.4H1.3V6h22.5c17.7,0.3,18.1,17.6,8.8,22.4
	C43.8,32.4,44.2,54.4,22.2,54.4z M11,25.3h11.6c8.1,0,9.4-9.7-1-9.7H11V25.3z M22,35.1H11v9.8h10.8C31.7,44.8,31.1,35.1,22,35.1z"/>
</svg>
