<?xml version="1.0" encoding="utf-8"?>
<!-- Generator: Adobe Illustrator 21.1.0, SVG Export Plug-In . SVG Version: 6.00 Build 0)  -->
<svg version="1.1" id="Warstwa_1" xmlns="http://www.w3.org/2000/svg" xmlns:xlink="http://www.w3.org/1999/xlink" x="0px" y="0px"
	 viewBox="0 0 85 85" style="enable-background:new 0 0 85 85;" xml:space="preserve">
<style type="text/css">
	.st0{fill:url(#SVGID_1_);}
	.st1{fill:url(#SVGID_2_);}
	.st2{fill:url(#SVGID_3_);}
	.st3{fill:url(#SVGID_4_);}
	.st4{fill:url(#SVGID_5_);}
	.st5{fill:url(#SVGID_6_);}
	.st6{fill:url(#SVGID_7_);}
	.st7{fill:url(#SVGID_8_);}
	.st8{fill:url(#SVGID_9_);}
</style>
<g>
	<linearGradient id="SVGID_1_" gradientUnits="userSpaceOnUse" x1="47.3506" y1="19.375" x2="50.1717" y2="19.375">
		<stop  offset="0" style="stop-color:#EC9784"/>
		<stop  offset="1" style="stop-color:#F6D0C1"/>
	</linearGradient>
	<circle class="st0" cx="48.8" cy="19.4" r="1.4"/>
	<linearGradient id="SVGID_2_" gradientUnits="userSpaceOnUse" x1="33.2453" y1="19.3717" x2="36.0664" y2="19.3717">
		<stop  offset="0" style="stop-color:#EC9784"/>
		<stop  offset="1" style="stop-color:#F6D0C1"/>
	</linearGradient>
	<circle class="st1" cx="34.7" cy="19.4" r="1.4"/>
	<linearGradient id="SVGID_3_" gradientUnits="userSpaceOnUse" x1="9.2581" y1="42.3656" x2="74.1452" y2="42.3656">
		<stop  offset="0" style="stop-color:#EC9784"/>
		<stop  offset="1" style="stop-color:#F6D0C1"/>
	</linearGradient>
	<path class="st2" d="M72.3,48.4c1.2-1.8,1.8-4.1,1.8-6c0-3-1.3-5.7-3.6-7.6c0.5-1.2,0.8-2.4,0.8-3.7c0-3.9-2.3-7.6-5.7-9.3
		c0.5-4.3-2.3-8.2-6.4-9.2c-1.6-3.7-5.2-6.3-9-6.3c-3.5,0-6.7,2.1-8.5,5.1c-1.7-3-4.9-5.1-8.5-5.1c-3.8,0-7.4,2.6-9,6.3
		c-4.2,1-6.9,5-6.4,9.2c-3.4,1.7-5.7,5.4-5.7,9.3c0,1.3,0.3,2.5,0.8,3.7c-2.3,1.9-3.6,4.6-3.6,7.6c0,2,0.6,4.2,1.8,6
		c-1.2,1.7-1.8,3.6-1.8,5.7c0,2.6,1.1,5.1,2.9,7c-1,5.9,3.7,11.8,9.7,11.8c0,0,0.1,0,0.1,0c2,3.5,5.7,5.6,9.7,5.6
		c4.2,0,7.9-2.5,9.9-6.1c1.9,3.6,5.7,6.1,9.9,6.1c4,0,7.7-2.2,9.7-5.6c0,0,0.1,0,0.1,0c5.4,0,9.9-4.7,9.9-10.3c0-0.5,0-1-0.1-1.5
		c1.9-1.9,2.9-4.4,2.9-7C74.1,52.1,73.5,50.1,72.3,48.4z M40.3,27.6c-0.8-0.5-1.8-0.8-2.8-0.8c-0.8,0-1.4,0.6-1.4,1.4
		c0,0.8,0.6,1.4,1.4,1.4c1.6,0,2.8,1.3,2.8,2.8l0,26.8c-2.1-2.3-5.1-3.8-8.5-3.8c-0.8,0-1.4,0.6-1.4,1.4c0,0.8,0.6,1.4,1.4,1.4
		c4.7,0,8.5,3.8,8.5,8.5c0,4.8-3.9,8.9-8.5,8.9c-3.3,0-6.3-1.9-7.7-4.9c-0.3-0.6-0.8-0.9-1.4-0.8c-0.1,0-0.2,0-0.3,0
		c-4,0.5-8.5-4-7.3-9.1c0.1-0.5-0.1-1.1-0.5-1.4c-1.6-1.4-2.6-3.3-2.6-5.4c0-1.3,0.4-2.5,1-3.6c1.7,1.4,3.8,2.2,6,2.2
		c0.8,0,1.4-0.6,1.4-1.4c0-0.8-0.6-1.4-1.4-1.4c-3.8,0-7.1-3.5-7.1-7.5c0-2.4,1.2-4.6,3.3-5.9c0.6-0.4,0.8-1.2,0.5-1.9
		c-0.6-1.1-0.9-2.3-0.9-3.5c0-3.8,3.1-7.5,7.1-7.5c3.8,0,7.1,3.5,7.1,7.5c0,0.8,0.6,1.4,1.4,1.4c0.8,0,1.4-0.6,1.4-1.4
		c0-5.6-4.5-10.3-9.9-10.3c-0.5,0-0.9,0-1.4,0.1c0,0,0-0.1,0-0.1c0-3.1,2.6-5.6,5.6-5.6c1.5,0,2.9,0.6,4,1.7c0.6,0.6,1.4,0.6,2,0
		c0.6-0.6,0.6-1.4,0-2c-1.3-1.3-2.9-2.1-4.7-2.4c1.2-1.8,3.3-3.3,5.7-3.3c3.8,0,7.1,3.5,7.1,7.5L40.3,27.6z M64.3,52.7
		c2.2,0,4.3-0.8,6-2.2c0.7,1.1,1,2.4,1,3.6c0,2.1-0.9,4-2.6,5.4c-0.4,0.3-0.6,0.9-0.5,1.4c0.1,0.6,0.2,1.1,0.2,1.7
		c0,4.4-4,7.9-7.5,7.4c-0.1,0-0.2,0-0.3,0c-0.6-0.1-1.2,0.3-1.4,0.8c-1.4,3-4.4,4.9-7.7,4.9c-4.6,0-8.5-4.1-8.5-8.9
		c0-4.7,3.8-8.5,8.5-8.5c0.8,0,1.4-0.6,1.4-1.4c0-0.8-0.6-1.4-1.4-1.4c-3.4,0-6.4,1.5-8.5,3.8l0-26.8c0-1.6,1.3-2.8,2.8-2.8
		c0.8,0,1.4-0.6,1.4-1.4c0-0.8-0.6-1.4-1.4-1.4c-1,0-2,0.3-2.8,0.8l0-11.1c0-4,3.3-7.5,7.1-7.5c2.4,0,4.5,1.5,5.7,3.3
		c-1.8,0.3-3.4,1.1-4.7,2.4c-0.6,0.6-0.6,1.4,0,2c0.6,0.6,1.4,0.6,2,0c1.1-1.1,2.5-1.7,4-1.7c3.1,0,5.6,2.5,5.6,5.6c0,0,0,0.1,0,0.1
		c-0.5-0.1-0.9-0.1-1.4-0.1c-5.4,0-9.9,4.7-9.9,10.3c0,0.8,0.6,1.4,1.4,1.4c0.8,0,1.4-0.6,1.4-1.4c0-4,3.3-7.5,7.1-7.5
		c3.9,0,7.1,3.7,7.1,7.5c0,1.2-0.3,2.3-0.9,3.5c-0.4,0.7-0.2,1.5,0.5,1.9c2.1,1.3,3.3,3.5,3.3,5.9c0,4-3.2,7.5-7.1,7.5
		c-0.8,0-1.4,0.6-1.4,1.4C62.9,52,63.5,52.7,64.3,52.7z"/>
	<linearGradient id="SVGID_4_" gradientUnits="userSpaceOnUse" x1="20.5478" y1="38.1295" x2="37.4723" y2="38.1295">
		<stop  offset="0" style="stop-color:#EC9784"/>
		<stop  offset="1" style="stop-color:#F6D0C1"/>
	</linearGradient>
	<path class="st3" d="M35.1,36.3c-4.5,4-11.8,0.8-11.8-5.3c0-0.8-0.6-1.4-1.4-1.4c-0.8,0-1.4,0.6-1.4,1.4c0,4.9,3.6,9,8.3,9.7
		c-0.5,1.7-2.1,3-4,3c-0.8,0-1.4,0.6-1.4,1.4c0,0.8,0.6,1.4,1.4,1.4c3.4,0,6.3-2.5,6.9-5.7c2-0.3,3.8-1.1,5.3-2.4
		c0.6-0.5,0.6-1.4,0.1-2C36.6,35.9,35.7,35.8,35.1,36.3z"/>
	<linearGradient id="SVGID_5_" gradientUnits="userSpaceOnUse" x1="20.5403" y1="66.9754" x2="31.8225" y2="66.9754">
		<stop  offset="0" style="stop-color:#EC9784"/>
		<stop  offset="1" style="stop-color:#F6D0C1"/>
	</linearGradient>
	<path class="st4" d="M22,61.1c-0.8,0-1.4,0.6-1.4,1.4c0,0.8,0.6,1.4,1.4,1.4c3.8,0,7.1,3.5,7.1,7.5c0,0.8,0.6,1.4,1.4,1.4
		c0.8,0,1.4-0.6,1.4-1.4C31.8,65.8,27.3,61.1,22,61.1z"/>
	<linearGradient id="SVGID_6_" gradientUnits="userSpaceOnUse" x1="22.0081" y1="54.1076" x2="34.6483" y2="54.1076">
		<stop  offset="0" style="stop-color:#EC9784"/>
		<stop  offset="1" style="stop-color:#F6D0C1"/>
	</linearGradient>
	<path class="st5" d="M33.2,49.8c-4.8,0-8.9,2.6-11,6.4c-0.4,0.7-0.1,1.5,0.5,1.9c0.7,0.4,1.5,0.1,1.9-0.5c1.7-3,4.9-5,8.6-5
		c0.8,0,1.4-0.6,1.4-1.4C34.6,50.5,34,49.8,33.2,49.8z"/>
	<linearGradient id="SVGID_7_" gradientUnits="userSpaceOnUse" x1="45.9354" y1="38.1382" x2="62.8636" y2="38.1382">
		<stop  offset="0" style="stop-color:#EC9784"/>
		<stop  offset="1" style="stop-color:#F6D0C1"/>
	</linearGradient>
	<path class="st6" d="M61.5,29.7c-0.8,0-1.4,0.6-1.4,1.4c0,3.9-3.2,7.1-7.1,7.1c-1.7,0-3.4-0.6-4.7-1.8c-0.6-0.5-1.5-0.5-2,0.1
		c-0.5,0.6-0.5,1.5,0.1,2c1.5,1.3,3.3,2.2,5.3,2.4c0.6,3.3,3.5,5.7,6.9,5.7c0.8,0,1.4-0.6,1.4-1.4c0-0.8-0.6-1.4-1.4-1.4
		c-1.9,0-3.5-1.2-4-3c4.7-0.8,8.3-4.8,8.3-9.7C62.9,30.3,62.2,29.7,61.5,29.7z"/>
	<linearGradient id="SVGID_8_" gradientUnits="userSpaceOnUse" x1="51.5699" y1="66.9828" x2="62.8562" y2="66.9828">
		<stop  offset="0" style="stop-color:#EC9784"/>
		<stop  offset="1" style="stop-color:#F6D0C1"/>
	</linearGradient>
	<path class="st7" d="M61.4,61.1c-5.4,0-9.9,4.7-9.9,10.3c0,0.8,0.6,1.4,1.4,1.4c0.8,0,1.4-0.6,1.4-1.4c0-4,3.3-7.5,7.1-7.5
		c0.8,0,1.4-0.6,1.4-1.4C62.9,61.8,62.2,61.1,61.4,61.1z"/>
	<linearGradient id="SVGID_9_" gradientUnits="userSpaceOnUse" x1="48.7536" y1="54.1141" x2="61.3907" y2="54.1141">
		<stop  offset="0" style="stop-color:#EC9784"/>
		<stop  offset="1" style="stop-color:#F6D0C1"/>
	</linearGradient>
	<path class="st8" d="M58.8,57.7c0.4,0.7,1.2,0.9,1.9,0.5c0.7-0.4,0.9-1.2,0.5-1.9c-2.2-3.8-6.3-6.4-11-6.4c-0.8,0-1.4,0.6-1.4,1.4
		c0,0.8,0.6,1.4,1.4,1.4C53.9,52.7,57.1,54.7,58.8,57.7z"/>
</g>
</svg>
