<?xml version="1.0" encoding="utf-8"?>
<!-- Generator: Adobe Illustrator 21.1.0, SVG Export Plug-In . SVG Version: 6.00 Build 0)  -->
<svg version="1.1" id="Warstwa_1" xmlns="http://www.w3.org/2000/svg" xmlns:xlink="http://www.w3.org/1999/xlink" x="0px" y="0px"
	 viewBox="0 0 85 85" style="enable-background:new 0 0 85 85;" xml:space="preserve">
<style type="text/css">
	.st0{fill:url(#SVGID_1_);}
	.st1{fill:url(#SVGID_2_);}
	.st2{fill:url(#SVGID_3_);}
</style>
<g>
	<linearGradient id="SVGID_1_" gradientUnits="userSpaceOnUse" x1="7.2798" y1="42.4035" x2="76.1874" y2="42.4035">
		<stop  offset="0" style="stop-color:#EC9784"/>
		<stop  offset="1" style="stop-color:#F6D0C1"/>
	</linearGradient>
	<path class="st0" d="M72.2,71.2H52.8c6.4-3.4,10.8-10,10.8-17.8v-4.7c1.4-0.7,2.7-1.5,3.9-2.7c4.9-5,8.5-25.8,8.7-26.7
		c0.1-0.3,0-0.7-0.2-1c-0.2-0.3-0.5-0.4-0.9-0.5c-13.9-1.2-22.5,5.2-26.1,8.7c-0.3-2.2-1.2-5.3-4-8.8c-1-1.3-1.4-2.5-1.2-3.8
		c0.6-3.1,4.5-5.3,4.5-5.4c0.6-0.3,0.8-1.1,0.5-1.7c-0.3-0.6-1.1-0.8-1.7-0.5c-0.2,0.1-4.9,2.8-5.7,7c-0.4,2,0.2,4,1.7,5.8
		c4.4,5.5,3.5,9.8,3.4,10c0,0.1,0,0.1,0,0.2c-0.7,1.2-1.2,2.4-1.6,3.8H20.7H8.5c-0.7,0-1.2,0.5-1.2,1.2v3.7c0,7,5.4,12.7,12.2,13.3
		v2c0,7.7,4.4,14.3,10.8,17.8H12.2c-0.7,0-1.2,0.5-1.2,1.2v4.9c0,0.7,0.5,1.2,1.2,1.2h60c0.7,0,1.2-0.5,1.2-1.2v-4.9
		C73.4,71.7,72.8,71.2,72.2,71.2z M71.7,20.2c0.6,0,1.2,0,1.9,0c-1.2,6.6-4.4,20.6-7.8,24c-3.5,3.5-8.7,4.2-12.9,2
		c0.1-0.3,0.2-0.6,0.2-0.9c0.2-1,0.5-1.9,0.7-2.8l10.6-1.2c0.7-0.1,1.2-0.7,1.1-1.4c-0.1-0.7-0.7-1.2-1.4-1.1L54.6,40
		c0.3-0.8,0.5-1.7,0.8-2.5c0-0.1,0.1-0.1,0.1-0.2l8.9-1.4c0.7-0.1,1.1-0.7,1-1.4c-0.1-0.7-0.7-1.1-1.4-1l-7,1.1
		c0.6-0.8,1.3-1.6,2-2.4l6.8-0.2c0.7,0,1.2-0.6,1.2-1.3c0-0.7-0.6-1.2-1.2-1.2c0,0,0,0,0,0l-4,0.1c3.5-2.9,6.9-4.7,7-4.8
		c0.6-0.3,0.8-1.1,0.5-1.7c-0.3-0.6-1-0.8-1.6-0.5c-0.3,0.1-4.5,2.4-8.5,6l-0.6-2.1c-0.2-0.6-0.9-1-1.5-0.8c-0.6,0.2-1,0.9-0.8,1.5
		l1,3.4c-0.8,0.8-1.5,1.7-2.1,2.6l-1.2-3c-0.3-0.6-1-0.9-1.6-0.7c-0.6,0.3-0.9,1-0.7,1.6l2,4.7c-0.1,0.2-0.2,0.4-0.3,0.6
		c-0.3,0.7-0.5,1.4-0.7,2.1l-1.9-3.1c-0.4-0.6-1.1-0.8-1.7-0.4c-0.6,0.4-0.8,1.1-0.4,1.7l3,4.9c-0.3,1-0.5,2-0.8,3c0,0,0,0,0,0.1
		c-0.2-0.1-0.4-0.3-0.5-0.4c-2.1-2.1-3.3-4.8-3.3-7.7c0-2.9,1.1-5.7,3.1-7.8C52.7,26.2,59.9,20.2,71.7,20.2z M9.7,38.1v-2.4h9.8
		v13.4C14,48.5,9.7,43.8,9.7,38.1z M22,53.4v-3.1V35.7h22.6c0,0.4-0.1,0.7-0.1,1.1c0,3.6,1.5,7,4,9.5c0.5,0.5,1,0.9,1.6,1.2
		c-0.5,1.8-1,3.6-1.7,5.3c-0.3,0.6,0,1.3,0.7,1.6c0.1,0.1,0.3,0.1,0.5,0.1c0.5,0,0.9-0.3,1.1-0.8c0.6-1.5,1.1-3.2,1.6-4.9
		c1.8,0.8,3.7,1.3,5.7,1.3c1.1,0,2.2-0.2,3.3-0.5v3.8c0,9.8-8,17.7-17.7,17.7h-3.7C29.9,71.2,22,63.2,22,53.4z M70.9,76.1H13.4v-2.4
		h26.3h3.7h27.5V76.1z"/>
	<linearGradient id="SVGID_2_" gradientUnits="userSpaceOnUse" x1="31.4728" y1="18.533" x2="39.2416" y2="18.533">
		<stop  offset="0" style="stop-color:#EC9784"/>
		<stop  offset="1" style="stop-color:#F6D0C1"/>
	</linearGradient>
	<path class="st1" d="M36.7,29.3c-0.2,0.7,0.2,1.3,0.9,1.5c0.1,0,0.2,0,0.3,0c0.5,0,1-0.4,1.2-0.9c0.1-0.2,1.3-5.6-3.9-12.1
		c-1-1.3-1.4-2.5-1.2-3.8c0.6-3.1,4.5-5.3,4.5-5.4c0.6-0.3,0.8-1.1,0.5-1.7c-0.3-0.6-1.1-0.8-1.7-0.5c-0.2,0.1-4.9,2.8-5.7,7
		c-0.4,2,0.2,4,1.7,5.8C37.7,24.8,36.7,29.1,36.7,29.3z"/>
	<linearGradient id="SVGID_3_" gradientUnits="userSpaceOnUse" x1="23.1924" y1="60.1529" x2="42.7784" y2="60.1529">
		<stop  offset="0" style="stop-color:#EC9784"/>
		<stop  offset="1" style="stop-color:#F6D0C1"/>
	</linearGradient>
	<path class="st2" d="M41.6,67.5c-8.8,0-15.9-7.1-15.9-15.9c0-0.7-0.5-1.2-1.2-1.2s-1.2,0.5-1.2,1.2c0,10.1,8.2,18.4,18.4,18.4
		c0.7,0,1.2-0.5,1.2-1.2C42.8,68,42.2,67.5,41.6,67.5z"/>
</g>
</svg>
