<?xml version="1.0" encoding="utf-8"?>
<!-- Generator: Adobe Illustrator 21.1.0, SVG Export Plug-In . SVG Version: 6.00 Build 0)  -->
<svg version="1.1" id="Warstwa_1" xmlns="http://www.w3.org/2000/svg" xmlns:xlink="http://www.w3.org/1999/xlink" x="0px" y="0px"
	 viewBox="0 0 161 28" style="enable-background:new 0 0 161 28;" xml:space="preserve">
<style type="text/css">
	.st0{fill:#EC9784;}
</style>
<g>
	<path class="st0" d="M39.1,21.5c0.7,0,1.4,0,2.1,0c0.7,0,1.4-0.1,2.2-0.2c0.8-0.1,1.8-0.9,2.9-2.4c1.2-1.5,2-3,2.5-4.6h0.4V22H30.4
		v-0.4c0.2,0,0.4,0,0.7,0c0.3,0,0.6-0.1,0.9-0.1c0.3,0,0.6-0.2,0.8-0.4c0.2-0.2,0.3-0.6,0.3-1.1l0-1.1V7.6l0-1.1
		c0-0.5-0.2-0.9-0.4-1.1C32.6,5.2,32.4,5.1,32,5c-0.3,0-0.7-0.1-0.9-0.1c-0.3,0-0.5,0-0.8,0V4.5h18.5v7.1h-0.4
		c-0.8-1.8-1.8-3.3-3-4.5s-2.1-1.9-2.9-2C41.7,5,41,5,40.5,5c-0.5,0-0.9,0-1.1,0h-0.2l0,7.9l1,0c0.9-0.1,1.6-0.5,2.1-1.3
		c0.5-0.8,0.7-1.7,0.7-2.7h0.5v8.7h-0.5c0-1.1-0.2-2-0.7-2.8c-0.5-0.8-1.2-1.2-2.1-1.3l-1,0V21.5z"/>
	<path class="st0" d="M50.7,14.3h6.4V18h-6.4V14.3z"/>
	<path class="st0" d="M80,22h-7.2v-0.4c0.6,0,0.9-0.1,1-0.3c0.1-0.2,0.2-0.6,0.2-1.2l0-1.1v-4.8l0-1c0-0.7-0.1-1.2-0.3-1.5
		s-0.5-0.5-0.9-0.5c-0.3,0-0.6,0.1-0.9,0.4c-0.3,0.3-0.5,0.8-0.7,1.5V19l0,1.1c0,0.5,0,0.9,0.1,1.1c0.1,0.2,0.4,0.4,0.9,0.4V22h-6.8
		v-0.4c0.5,0,0.9-0.1,1-0.3c0.1-0.2,0.2-0.6,0.2-1.2l0-1.1v-4.8l0-1c0-0.7-0.1-1.2-0.3-1.5s-0.5-0.5-0.9-0.5c-0.5,0-0.9,0.2-1.1,0.5
		c-0.2,0.4-0.4,0.7-0.5,1.1V19l0,1.1c0,0.5,0,0.9,0.1,1.1c0.1,0.2,0.4,0.4,0.9,0.4V22h-7.2v-0.4l0.5,0c0.5,0,0.7-0.2,0.8-0.3
		c0.1-0.2,0.1-0.6,0.1-1.2l0-1.1v-5.7l0-1c0-0.4-0.1-0.7-0.1-0.9s-0.4-0.3-0.9-0.4l-0.6,0v-0.4h6.1v1.8c0.1-0.4,0.4-0.9,0.9-1.4
		s1.3-0.7,2.6-0.7c0.9,0,1.7,0.2,2.3,0.6s1.2,0.9,1.5,1.7c0.1-0.3,0.3-0.7,0.6-1.3c0.3-0.6,1.3-0.9,2.9-0.9c1.1,0,2,0.3,2.8,0.9
		c0.8,0.6,1.2,1.4,1.2,2.4V19l0,1.1c0,0.6,0,1,0.1,1.2c0.1,0.2,0.4,0.3,0.9,0.3l0.4,0V22z"/>
	<path class="st0" d="M92.8,20.8c0.4,0,0.6-0.2,0.8-0.7c0.2-0.5,0.2-1,0.2-1.7h0.3c0,1.4-0.3,2.3-0.8,2.8s-1,0.7-1.4,0.9
		s-0.9,0.2-1.5,0.2c-0.7,0-1.3-0.2-1.8-0.5c-0.5-0.4-0.9-0.8-1-1.4c-0.3,0.6-0.7,1.1-1.3,1.5c-0.6,0.3-1.4,0.5-2.3,0.5
		c-1,0-1.9-0.3-2.5-0.8c-0.6-0.6-1-1.3-1-2.3c0-0.8,0.2-1.4,0.6-1.9c0.4-0.5,0.8-0.8,1.2-0.9c0.4-0.1,1.1-0.2,1.9-0.3
		c0.9-0.1,1.5-0.2,1.9-0.3c0.4-0.1,0.7-0.2,0.9-0.3c0.2-0.1,0.3-0.3,0.3-0.6l0-2.2c0-0.6-0.1-1.1-0.2-1.3c-0.2-0.3-0.5-0.4-1-0.4
		c-0.3,0-0.6,0.1-0.8,0.2c-0.2,0.1-0.3,0.3-0.3,0.6c0,0.2,0.2,0.4,0.5,0.7c0.3,0.3,0.5,0.7,0.5,1.2c0,0.5-0.2,0.9-0.7,1.3
		s-1.2,0.6-2.2,0.6c-0.5,0-1-0.1-1.4-0.4s-0.6-0.7-0.6-1.2c0-1,0.6-1.8,1.7-2.4c1.1-0.6,2.4-0.9,4-0.9c1.3,0,2.5,0.3,3.6,0.8
		c1.1,0.5,1.6,1.4,1.6,2.5v5.5c0,0.5,0,0.9,0.1,1.2C92.2,20.7,92.4,20.8,92.8,20.8z M87.4,20.1v-4.6l-0.1,0
		c-0.1,0.2-0.4,0.4-0.8,0.5s-0.7,0.3-0.8,0.5c-0.2,0.2-0.3,0.5-0.4,0.9s-0.1,0.9-0.1,1.4c0,0.7,0.1,1.3,0.2,1.7s0.4,0.6,0.8,0.6
		c0.3,0,0.6-0.1,0.8-0.4C87.2,20.6,87.3,20.4,87.4,20.1z"/>
	<path class="st0" d="M101.8,22H94v-0.4l0.6,0c0.5,0,0.7-0.2,0.8-0.3s0.1-0.6,0.1-1.2l0-1.1v-5.7l0-1c0-0.4-0.1-0.7-0.1-0.9
		c-0.1-0.2-0.4-0.3-0.9-0.4l-0.6,0v-0.4h6.3V19l0,1.1c0,0.6,0,1,0.1,1.1s0.4,0.3,0.8,0.3l0.6,0V22z M95.5,6.6c0-0.6,0.2-1.2,0.7-1.6
		c0.5-0.4,1-0.7,1.7-0.7c0.7,0,1.2,0.2,1.7,0.6c0.5,0.4,0.7,1,0.7,1.6c0,0.6-0.2,1.2-0.7,1.6c-0.5,0.4-1,0.7-1.7,0.7
		c-0.6,0-1.2-0.2-1.7-0.7C95.8,7.8,95.5,7.3,95.5,6.6z"/>
	<path class="st0" d="M110,22h-7.8v-0.4l0.6,0c0.5,0,0.7-0.2,0.8-0.3c0.1-0.2,0.1-0.6,0.1-1.2l0-1.1V7.1l0-1c0-0.4-0.1-0.7-0.1-0.9
		c-0.1-0.2-0.4-0.3-0.9-0.4l-0.8,0V4.5h6.5V19l0,1.1c0,0.6,0,1,0.1,1.1s0.4,0.3,0.8,0.3l0.6,0V22z"/>
	<path class="st0" d="M138.7,22h-7.2v-0.4c0.6,0,0.9-0.1,1-0.3c0.1-0.2,0.2-0.6,0.2-1.2l0-1.1v-4.8l0-1c0-0.7-0.1-1.2-0.3-1.5
		c-0.2-0.3-0.5-0.5-0.9-0.5c-0.3,0-0.6,0.1-0.9,0.4c-0.3,0.3-0.5,0.8-0.7,1.5V19l0,1.1c0,0.5,0,0.9,0.1,1.1c0.1,0.2,0.4,0.4,0.9,0.4
		V22h-6.8v-0.4c0.5,0,0.9-0.1,1-0.3c0.1-0.2,0.2-0.6,0.2-1.2l0-1.1v-4.8l0-1c0-0.7-0.1-1.2-0.3-1.5s-0.5-0.5-0.9-0.5
		c-0.5,0-0.9,0.2-1.1,0.5c-0.2,0.4-0.4,0.7-0.5,1.1V19l0,1.1c0,0.5,0,0.9,0.1,1.1c0.1,0.2,0.4,0.4,0.9,0.4V22h-7.2v-0.4l0.5,0
		c0.5,0,0.7-0.2,0.8-0.3c0.1-0.2,0.1-0.6,0.1-1.2l0-1.1v-5.7l0-1c0-0.4-0.1-0.7-0.1-0.9s-0.4-0.3-0.9-0.4l-0.6,0v-0.4h6.1v1.8
		c0.1-0.4,0.4-0.9,0.9-1.4s1.3-0.7,2.6-0.7c0.9,0,1.7,0.2,2.3,0.6s1.2,0.9,1.5,1.7c0.1-0.3,0.3-0.7,0.6-1.3c0.3-0.6,1.3-0.9,2.9-0.9
		c1.1,0,2,0.3,2.8,0.9c0.8,0.6,1.2,1.4,1.2,2.4V19l0,1.1c0,0.6,0,1,0.1,1.2s0.4,0.3,0.9,0.3l0.4,0V22z"/>
	<path class="st0" d="M151.3,18.4c-0.4,1.2-1.2,2.1-2.2,2.8c-1,0.7-2.2,1-3.5,1c-1.9,0-3.4-0.5-4.7-1.6c-1.2-1-1.8-2.5-1.8-4.4
		c0-1.7,0.6-3.1,1.9-4.3c1.3-1.1,2.8-1.7,4.5-1.7c1.8,0,3.3,0.5,4.2,1.6c1,1,1.5,2.3,1.5,3.8h-7.4c0,0.6,0,1.2,0.1,1.8
		c0.1,0.6,0.3,1.2,0.5,1.7c0.2,0.6,0.6,1,1,1.4c0.5,0.3,1,0.5,1.7,0.5c1,0,1.8-0.3,2.3-0.8c0.6-0.6,1-1.2,1.3-2.1L151.3,18.4z
		 M147.1,15.3c0-0.2,0-0.4,0-0.6c0-0.2,0-0.5,0-0.9c0-1-0.1-1.7-0.4-2.2s-0.7-0.8-1.2-0.8c-0.5,0-0.9,0.2-1.1,0.7
		c-0.2,0.5-0.3,1.2-0.4,2.2l0,1.5H147.1z"/>
	<path class="st0" d="M158.1,7.9c0,1-0.4,2.2-1.3,3.8c-0.9,1.6-1.3,3.3-1.3,5.2h-0.4c0-1.7-0.4-3.6-1.3-5.4
		c-0.9-1.9-1.3-3.1-1.3-3.6c0-0.9,0.3-1.7,0.9-2.5c0.6-0.8,1.2-1.1,1.9-1.1c0.6,0,1.2,0.4,1.8,1.1C157.8,6.1,158.1,7,158.1,7.9z
		 M157.7,19.9c0,0.6-0.2,1.2-0.7,1.6c-0.5,0.4-1,0.7-1.7,0.7c-0.6,0-1.2-0.2-1.6-0.7c-0.5-0.4-0.7-1-0.7-1.6c0-0.6,0.2-1.2,0.7-1.6
		c0.5-0.4,1-0.7,1.6-0.7c0.7,0,1.2,0.2,1.7,0.6C157.4,18.7,157.7,19.2,157.7,19.9z"/>
</g>
<g>
	<g>
		<path class="st0" d="M22,19v-8.3l-5,3.6l5,4.9C22,19.1,22,19.1,22,19z M9.3,14.3l-5-3.6V19c0,0.1,0,0.1,0,0.2L9.3,14.3z
			 M20.3,22.7H6.1c-2.1,0-3.7-1.7-3.7-3.7V8.7C2.3,6.7,4,5,6.1,5h14.2C22.3,5,24,6.7,24,8.7V19C24,21.1,22.3,22.7,20.3,22.7z
			 M13.2,16.2c-0.7,0-1.5-0.2-2.1-0.7l-0.1-0.1l-5.4,5.2c0.1,0.1,0.3,0.1,0.5,0.1h14.2c0.2,0,0.3,0,0.5-0.1l-5.4-5.2l-0.1,0.1
			C14.7,16,13.9,16.2,13.2,16.2z M12.2,13.9c0.3,0.2,0.6,0.3,1,0.3c0.3,0,0.7-0.1,1-0.3L22,8.3C21.8,7.5,21.1,7,20.3,7H6.1
			C5.2,7,4.6,7.5,4.4,8.3L12.2,13.9z"/>
	</g>
</g>
</svg>
