<?xml version="1.0" encoding="utf-8"?>
<!-- Generator: Adobe Illustrator 21.1.0, SVG Export Plug-In . SVG Version: 6.00 Build 0)  -->
<svg version="1.1" id="Warstwa_1" xmlns="http://www.w3.org/2000/svg" xmlns:xlink="http://www.w3.org/1999/xlink" x="0px" y="0px"
	 viewBox="0 0 85 85" style="enable-background:new 0 0 85 85;" xml:space="preserve">
<style type="text/css">
	.st0{fill:url(#SVGID_1_);}
</style>
<linearGradient id="SVGID_1_" gradientUnits="userSpaceOnUse" x1="14.1168" y1="42.4035" x2="71.2865" y2="42.4035">
	<stop  offset="0" style="stop-color:#94C687"/>
	<stop  offset="1" style="stop-color:#95BEB4"/>
</linearGradient>
<path class="st0" d="M40.8,65.9v7.8c0,0.8,0.9,1.4,1.9,1.4c1.1,0,1.9-0.6,1.9-1.4v-7.8h24.7c1.8-0.2,2.4-1.1,1.7-2.9L60,41.3l-2-4
	L44.5,10.5c-0.3-0.6-1-0.9-1.8-0.9c-0.8,0-1.5,0.4-1.8,0.9L27.4,37.2l-2,4l-8,15.9l-1.5,2.9l-1.5,3c0,0-1.2,2.2,1.8,2.9H40.8z
	 M44.6,63.1V59l6.7-5c0.7-0.6,0.7-1.5,0-2c-0.7-0.6-2-0.6-2.7,0l-4,3V44.6c0-0.8-0.9-1.4-1.9-1.4c-1.1,0-1.9,0.6-1.9,1.4v18.5H18.4
	l24.2-48l24.2,48H44.6z"/>
</svg>
