<?xml version="1.0" encoding="utf-8"?>
<!-- Generator: Adobe Illustrator 21.1.0, SVG Export Plug-In . SVG Version: 6.00 Build 0)  -->
<svg version="1.1" id="Warstwa_1" xmlns="http://www.w3.org/2000/svg" xmlns:xlink="http://www.w3.org/1999/xlink" x="0px" y="0px"
	 viewBox="0 0 200 200" style="enable-background:new 0 0 200 200;" xml:space="preserve">
<style type="text/css">
	.st0{fill:#FFFFFF;}
	.st1{fill:url(#SVGID_1_);}
	.st2{fill:url(#SVGID_2_);}
</style>
<g>
	<circle class="st0" cx="100" cy="100" r="78"/>
</g>
<g>
	<path class="st0" d="M79.2,17.3c34.2-9.2,70,3.3,91.1,31.8c28.2,38,20.2,91.9-17.8,120.1l-1.8-2.4c36.7-27.2,44.4-79.2,17.2-115.9
		C147.5,23.5,113,11.4,80,20.2L79.2,17.3z"/>
</g>
<g>
	<path class="st0" d="M42.8,21.5c4-3,8.2-5.6,12.7-8C73.2,4.1,93.1,0.4,113,2.8c53.7,6.4,92.3,55.3,85.9,109.1l-3-0.4
		c6.2-52.1-31.1-99.5-83.3-105.7c-39-4.6-76.3,14.7-95,49.3L15,53.6C21.9,40.9,31.3,30,42.8,21.5z"/>
</g>
<g>
	<linearGradient id="SVGID_1_" gradientUnits="userSpaceOnUse" x1="47.604" y1="90.4174" x2="152.4653" y2="90.4174">
		<stop  offset="0" style="stop-color:#EC9784"/>
		<stop  offset="1" style="stop-color:#F6D0C1"/>
	</linearGradient>
	<path class="st1" d="M137.1,82.7c-1.5-15.7-14.6-27.8-30.2-27.8c-9.3,0-18.2,4.2-24.1,11.4c-0.1,0-0.2-0.1-0.2-0.1L82,66
		c-0.4-0.1-0.7-0.2-1.2-0.4l-0.2,0c-0.2,0-0.3-0.1-0.5-0.1c-0.4-0.1-0.8-0.2-1.2-0.2c-0.2,0-0.5-0.1-0.7-0.1
		C77.6,65.1,77,65,76.4,65c-9.2,0-16.8,7.4-16.9,16.6c-7.1,4.3-11.8,12.6-11.8,20.9c0,12.9,10.5,23.5,23.5,23.5h8.7
		c1.9,0,3.4-1.5,3.4-3.4c0-1.9-1.5-3.4-3.4-3.4h-8.7c-9.1,0-16.6-7.4-16.6-16.6c0-6.4,4.2-13,9.9-15.7l2-0.9v-2.2c0-0.1,0-0.2,0-0.3
		l0-0.6l0-0.6c0,0,0-0.1,0-0.1c0-5.6,4.5-10.1,10.1-10.1c0.5,0,1,0.1,1.3,0.1l0.3,0c0.4,0.1,0.8,0.1,1.2,0.3c0.1,0,0.2,0,0.2,0
		c0.4,0.1,0.7,0.3,1.1,0.4c0.1,0.1,0.3,0.1,0.4,0.2c0.3,0.2,0.7,0.4,1,0.6c2.9,1.9,4.6,5,4.6,8.5c0,1.9,1.5,3.4,3.4,3.4
		c1.9,0,3.4-1.5,3.4-3.4c0-4.4-1.7-8.6-4.8-11.8c4.6-5.2,11.5-8.4,18.4-8.4c11.4,0,21.2,8.6,23.1,19.9c-1.5,0-3.3,0-5.2,0.3
		c-1.9,0.3-3.2,2-2.9,3.9c0.3,1.8,2.1,3.2,3.9,2.9c3.6-0.5,7.3,0,7.3,0c7.1,1.3,12.4,7.8,12.4,15.1c0,8.4-6.8,15.2-15.2,15.2h-6.7
		c-1.9,0-3.4,1.5-3.4,3.4c0,1.9,1.5,3.4,3.4,3.4h6.7c12.2,0,22.1-9.9,22.1-22.1C152.5,94.3,146.1,85.6,137.1,82.7z M63,82.5L63,82.5
		c0-0.1,0-0.1,0-0.1l1.6-0.1L63,82.5z"/>
	<linearGradient id="SVGID_2_" gradientUnits="userSpaceOnUse" x1="85.9393" y1="121.6728" x2="119.8423" y2="121.6728">
		<stop  offset="0" style="stop-color:#EC9784"/>
		<stop  offset="1" style="stop-color:#F6D0C1"/>
	</linearGradient>
	<path class="st2" d="M114,125.2l-7.6,7.6v-30.5c0-1.9-1.5-3.4-3.4-3.4c-1.9,0-3.4,1.5-3.4,3.4v30.5l-7.6-7.6
		c-1.3-1.3-3.5-1.3-4.9,0c-0.7,0.7-1,1.5-1,2.4c0,0.9,0.4,1.8,1,2.4l13.5,13.5c0.3,0.3,0.7,0.6,1.1,0.8c0.4,0.2,0.9,0.3,1.3,0.3
		c0.4,0,0.9-0.1,1.3-0.3c0.4-0.2,0.8-0.4,1.1-0.8l13.5-13.5c1.3-1.3,1.3-3.5,0-4.9C117.5,123.8,115.3,123.8,114,125.2z M116.4,127.5
		l-1.2-1.2L116.4,127.5L116.4,127.5z"/>
</g>
</svg>
