<?xml version="1.0" encoding="utf-8"?>
<!-- Generator: Adobe Illustrator 21.1.0, SVG Export Plug-In . SVG Version: 6.00 Build 0)  -->
<svg version="1.1" id="Warstwa_1" xmlns="http://www.w3.org/2000/svg" xmlns:xlink="http://www.w3.org/1999/xlink" x="0px" y="0px"
	 viewBox="0 0 85 85" style="enable-background:new 0 0 85 85;" xml:space="preserve">
<style type="text/css">
	.st0{fill:url(#SVGID_1_);}
	.st1{fill:url(#SVGID_2_);}
	.st2{fill:url(#SVGID_3_);}
	.st3{fill:url(#SVGID_4_);}
	.st4{fill:url(#SVGID_5_);}
	.st5{fill:url(#SVGID_6_);}
	.st6{fill:url(#SVGID_7_);}
	.st7{fill:url(#SVGID_8_);}
	.st8{fill:url(#SVGID_9_);}
</style>
<g>
	<linearGradient id="SVGID_1_" gradientUnits="userSpaceOnUse" x1="40.9875" y1="54.0737" x2="43.8056" y2="54.0737">
		<stop  offset="0" style="stop-color:#94C687"/>
		<stop  offset="1" style="stop-color:#95BEB4"/>
	</linearGradient>
	<path class="st0" d="M42.4,55.5c0.4,0,0.7-0.2,1-0.4c0.3-0.3,0.4-0.6,0.4-1c0-0.4-0.1-0.7-0.4-1c-0.3-0.3-0.6-0.4-1-0.4
		c-0.4,0-0.7,0.2-1,0.4c-0.3,0.3-0.4,0.6-0.4,1c0,0.4,0.1,0.7,0.4,1C41.7,55.3,42,55.5,42.4,55.5z"/>
	<linearGradient id="SVGID_2_" gradientUnits="userSpaceOnUse" x1="12.085" y1="42.4035" x2="72.7081" y2="42.4035">
		<stop  offset="0" style="stop-color:#94C687"/>
		<stop  offset="1" style="stop-color:#95BEB4"/>
	</linearGradient>
	<path class="st1" d="M67.4,31.2c-0.3-2.2-1.3-4.2-2.9-5.8c-1.8-1.8-4.2-2.7-6.8-2.7c-0.9,0-1.7,0.1-2.6,0.3c-0.6-1-1.3-1.9-2.2-2.8
		c2.2-1.1,4.5-2.8,5.1-5c0.8-3.1-0.9-6.3-4-7.1c-1.1-0.3-2.2-0.2-3.2,0.1c-0.7-0.8-1.7-1.4-2.7-1.7c-3-0.8-6.1,1.1-7,4.2
		c-0.4,1.7,0,3.5,0.9,5.1c-2.8,0.1-5.4,0.9-7.7,2.4c-0.8-0.5-1.7-0.8-2.7-1c-0.5-2.9-3-5.1-6.1-5.1c-0.8,0-1.4,0.6-1.4,1.4
		c0,0.8,0.6,1.4,1.4,1.4c1.5,0,2.7,1,3.2,2.3c-3.1,0.7-5.5,3.2-6,6.4c-2.9,1.4-4.9,4.2-5.3,7.5c-3.3,1.6-5.4,5-5.4,8.7
		c0,1,0.2,2.1,0.5,3L21.8,74c0.8,2.6,3.2,4.5,6,4.5H57c2.7,0,5.2-1.8,6-4.5l9.3-31.2c0.3-0.9,0.5-1.9,0.5-2.9
		C72.7,36.1,70.6,32.8,67.4,31.2z M43.9,11.4c0.4-1.4,1.5-2.3,2.8-2.3c0.2,0,0.5,0,0.7,0.1c0.8,0.2,1.4,0.7,1.7,1.4
		c0.2,0.4,0.5,0.6,0.9,0.7c0.4,0.1,0.8,0,1.1-0.2c0.7-0.4,1.5-0.6,2.2-0.4c1.5,0.4,2.4,2,2,3.6c-0.6,2.1-4.6,3.9-7.4,4.7
		C46.3,17.4,43.3,13.7,43.9,11.4z M30.3,19.9c2.6,0,4.8,2.2,4.8,4.8c0,2.6-2.2,4.8-4.8,4.8c-2.6,0-4.8-2.2-4.8-4.8
		C25.5,22.1,27.7,19.9,30.3,19.9z M27.8,75.7c-1.5,0-2.9-1-3.3-2.5l-7.4-24.8c1.4,0.8,3,1.2,4.7,1.2c0,0,0.8,0,2,0l4.6,26.1H27.8z
		 M31.3,75.7l-4.6-26.1c1.6,0,3.5,0,5.7,0l2.4,26.1H31.3z M47.2,75.7h-3.4V59.7c0-0.8-0.6-1.4-1.4-1.4c-0.8,0-1.4,0.6-1.4,1.4v15.9
		h-3.4l-2.3-26.1c4.6,0,9.7,0,14.3,0L47.2,75.7z M50,75.7l2.4-26.1c2.2,0,4.1,0,5.7,0l-4.7,26.1H50z M60.3,73.2
		c-0.4,1.4-1.8,2.5-3.3,2.5h-0.7L61,49.6c1,0,1.6,0,1.7,0l0,0c0.1,0,0.2,0,0.2,0c1.7,0,3.3-0.4,4.7-1.2L60.3,73.2z M63,46.8
		c0,0-0.1,0-0.1,0l-0.1,0c0,0,0,0,0,0h0c0,0-40.8,0-40.9,0c-3.1,0-5.7-2-6.6-4.8l0,0c0,0,0,0,0,0c-0.2-0.7-0.3-1.4-0.3-2.1
		c0-2.9,1.7-5.4,4.4-6.5c0.5-0.2,0.9-0.7,0.9-1.3c0.1-2.1,1.1-4.1,2.8-5.3c0.9,3.2,3.9,5.5,7.3,5.5c4.2,0,7.6-3.4,7.6-7.6
		c0-1.7-0.6-3.3-1.5-4.5c1.8-1,3.8-1.6,6-1.6c0.5,0,1,0,1.4,0.1c0.8,1.1,1.6,1.9,2.1,2.5l-2.2,8.2c-0.2,0.8,0.2,1.5,1,1.7
		c0.1,0,0.2,0,0.4,0c0.6,0,1.2-0.4,1.4-1l2.2-8.2c0.4-0.1,0.9-0.3,1.5-0.5c1.3,1.1,2.3,2.4,3.1,3.9c0.3,0.7,1.1,1,1.8,0.7
		c0.8-0.4,1.8-0.5,2.7-0.5c3.8,0,6.8,2.9,6.9,6.7c0,0.6,0.4,1.1,0.9,1.3c2.6,1.1,4.4,3.6,4.4,6.4C69.9,43.7,66.8,46.8,63,46.8z"/>
	<linearGradient id="SVGID_3_" gradientUnits="userSpaceOnUse" x1="42.2093" y1="41.7742" x2="47.3394" y2="41.7742">
		<stop  offset="0" style="stop-color:#94C687"/>
		<stop  offset="1" style="stop-color:#95BEB4"/>
	</linearGradient>
	<path class="st2" d="M44.6,39.6c-0.6-0.6-1.4-0.6-2,0c-0.6,0.6-0.6,1.4,0,2l2.3,2.3c0.3,0.3,0.6,0.4,1,0.4c0.4,0,0.7-0.1,1-0.4
		c0.6-0.6,0.6-1.4,0-2L44.6,39.6z"/>
	<linearGradient id="SVGID_4_" gradientUnits="userSpaceOnUse" x1="35.6059" y1="35.4231" x2="40.8044" y2="35.4231">
		<stop  offset="0" style="stop-color:#94C687"/>
		<stop  offset="1" style="stop-color:#95BEB4"/>
	</linearGradient>
	<path class="st3" d="M38.4,33.2L36,35.6c-0.6,0.6-0.6,1.4,0,2c0.3,0.3,0.6,0.4,1,0.4c0.4,0,0.7-0.1,1-0.4l2.4-2.4
		c0.6-0.6,0.6-1.4,0-2C39.8,32.7,38.9,32.7,38.4,33.2z"/>
	<linearGradient id="SVGID_5_" gradientUnits="userSpaceOnUse" x1="30.1918" y1="41.6133" x2="35.3218" y2="41.6133">
		<stop  offset="0" style="stop-color:#94C687"/>
		<stop  offset="1" style="stop-color:#95BEB4"/>
	</linearGradient>
	<path class="st4" d="M32.6,39.5c-0.6-0.6-1.4-0.6-2,0c-0.6,0.6-0.6,1.4,0,2l2.3,2.3c0.3,0.3,0.6,0.4,1,0.4c0.4,0,0.7-0.1,1-0.4
		c0.6-0.6,0.6-1.4,0-2L32.6,39.5z"/>
	<linearGradient id="SVGID_6_" gradientUnits="userSpaceOnUse" x1="57.2716" y1="41.1942" x2="62.4019" y2="41.1942">
		<stop  offset="0" style="stop-color:#94C687"/>
		<stop  offset="1" style="stop-color:#95BEB4"/>
	</linearGradient>
	<path class="st5" d="M59.7,39c-0.6-0.6-1.4-0.6-2,0c-0.6,0.6-0.6,1.4,0,2l2.3,2.3c0.3,0.3,0.6,0.4,1,0.4c0.4,0,0.7-0.1,1-0.4
		c0.6-0.6,0.6-1.4,0-2L59.7,39z"/>
	<linearGradient id="SVGID_7_" gradientUnits="userSpaceOnUse" x1="48.1858" y1="35.004" x2="53.5801" y2="35.004">
		<stop  offset="0" style="stop-color:#94C687"/>
		<stop  offset="1" style="stop-color:#95BEB4"/>
	</linearGradient>
	<path class="st6" d="M51.3,32.8L48.7,35c-0.6,0.5-0.7,1.4-0.2,2c0.3,0.3,0.6,0.5,1,0.5c0.4,0,0.7-0.1,1-0.3l2.6-2.2
		c0.6-0.5,0.7-1.4,0.2-2C52.7,32.4,51.9,32.3,51.3,32.8z"/>
	<linearGradient id="SVGID_8_" gradientUnits="userSpaceOnUse" x1="19.6195" y1="40.9764" x2="26.6136" y2="40.9764">
		<stop  offset="0" style="stop-color:#94C687"/>
		<stop  offset="1" style="stop-color:#95BEB4"/>
	</linearGradient>
	<path class="st7" d="M25.2,41.7c-1.5,0-2.8-1.2-2.8-2.8c0-0.8-0.6-1.4-1.4-1.4s-1.4,0.6-1.4,1.4c0,3.1,2.5,5.6,5.6,5.6
		c0.8,0,1.4-0.6,1.4-1.4C26.6,42.3,26,41.7,25.2,41.7z"/>
	<linearGradient id="SVGID_9_" gradientUnits="userSpaceOnUse" x1="23.2374" y1="34.3733" x2="26.0936" y2="34.3733">
		<stop  offset="0" style="stop-color:#94C687"/>
		<stop  offset="1" style="stop-color:#95BEB4"/>
	</linearGradient>
	<path class="st8" d="M24.6,35.8c0.2,0,0.4,0,0.5-0.1l0,0c0.7-0.3,1.1-1.1,0.8-1.8c-0.3-0.7-1.1-1.1-1.8-0.8l0,0
		c-0.7,0.3-1.1,1.1-0.8,1.8C23.6,35.5,24.1,35.8,24.6,35.8z"/>
</g>
</svg>
