<?xml version="1.0" encoding="utf-8"?>
<!-- Generator: Adobe Illustrator 21.1.0, SVG Export Plug-In . SVG Version: 6.00 Build 0)  -->
<svg version="1.1" id="Warstwa_1" xmlns="http://www.w3.org/2000/svg" xmlns:xlink="http://www.w3.org/1999/xlink" x="0px" y="0px"
	 viewBox="0 0 80 60" style="enable-background:new 0 0 80 60;" xml:space="preserve">
<style type="text/css">
	.st0{fill:url(#SVGID_1_);}
	.st1{fill:url(#SVGID_2_);}
</style>
<g>
	<linearGradient id="SVGID_1_" gradientUnits="userSpaceOnUse" x1="4.1387" y1="25.2737" x2="71" y2="25.2737">
		<stop  offset="0" style="stop-color:#EC9784"/>
		<stop  offset="1" style="stop-color:#F6D0C1"/>
	</linearGradient>
	<path class="st0" d="M61.2,20.3c-1-10-9.3-17.7-19.3-17.7c-5.9,0-11.6,2.7-15.4,7.3c-0.1,0-0.1,0-0.2-0.1L26,9.7
		c-0.2-0.1-0.5-0.2-0.7-0.2l-0.1,0c-0.1,0-0.2-0.1-0.3-0.1c-0.3-0.1-0.5-0.1-0.8-0.1c-0.1,0-0.3-0.1-0.4-0.1c-0.4,0-0.8-0.1-1.2-0.1
		c-5.9,0-10.7,4.7-10.8,10.6c-4.5,2.8-7.5,8-7.5,13.3c0,8.2,6.7,15,15,15h5.5c1.2,0,2.2-1,2.2-2.2c0-1.2-1-2.2-2.2-2.2h-5.5
		c-5.8,0-10.6-4.7-10.6-10.6c0-4.1,2.6-8.3,6.3-10l1.2-0.6V21c0-0.1,0-0.1,0-0.2l0-0.4l0-0.4c0,0,0-0.1,0-0.1c0-3.5,2.9-6.4,6.4-6.4
		c0.3,0,0.6,0,0.8,0.1l0.2,0c0.2,0,0.5,0.1,0.7,0.2c0.1,0,0.1,0,0.1,0c0.2,0.1,0.5,0.2,0.7,0.3c0.1,0,0.2,0.1,0.2,0.1
		c0.2,0.1,0.4,0.2,0.6,0.4c1.8,1.2,2.9,3.2,2.9,5.4c0,1.2,1,2.2,2.2,2.2c1.2,0,2.2-1,2.2-2.2c0-2.8-1.1-5.5-3-7.5
		C33.2,9,37.6,7,42,7c7.2,0,13.5,5.5,14.7,12.7c-1,0-2.1,0-3.3,0.2c-1.2,0.2-2,1.3-1.8,2.5c0.2,1.2,1.3,2,2.5,1.8
		c2.3-0.3,4.7,0,4.7,0c4.5,0.9,7.9,5,7.9,9.7c0,1.5-0.3,2.8-0.9,4.1c-1.5,3.3-4.9,5.6-8.8,5.6h-4.3c-1.2,0-2.2,1-2.2,2.2
		c0,1.2,1,2.2,2.2,2.2h4.3c7.8,0,14.1-6.3,14.1-14.1C71,27.8,66.9,22.2,61.2,20.3z M13.9,20.2L13.9,20.2
		C13.9,20.2,13.9,20.2,13.9,20.2l1-0.2L13.9,20.2z"/>
	<linearGradient id="SVGID_2_" gradientUnits="userSpaceOnUse" x1="28.5819" y1="45.2026" x2="50.199" y2="45.2026">
		<stop  offset="0" style="stop-color:#EC9784"/>
		<stop  offset="1" style="stop-color:#F6D0C1"/>
	</linearGradient>
	<path class="st1" d="M46.5,47.4l-4.9,4.9V32.8c0-1.2-1-2.2-2.2-2.2s-2.2,1-2.2,2.2v19.5l-4.9-4.9c-0.9-0.9-2.2-0.9-3.1,0
		c-0.4,0.4-0.6,1-0.6,1.6c0,0.6,0.2,1.1,0.6,1.5l8.6,8.6c0.2,0.2,0.5,0.4,0.7,0.5c0.3,0.1,0.6,0.2,0.8,0.2c0.3,0,0.6-0.1,0.8-0.2
		c0.3-0.1,0.5-0.3,0.7-0.5l8.6-8.6c0.9-0.9,0.9-2.2,0-3.1C48.7,46.6,47.3,46.6,46.5,47.4z M48,48.9l-0.7-0.7L48,48.9L48,48.9z"/>
</g>
</svg>
