<?xml version="1.0" encoding="utf-8"?>
<!-- Generator: Adobe Illustrator 21.1.0, SVG Export Plug-In . SVG Version: 6.00 Build 0)  -->
<svg version="1.1" id="Warstwa_1" xmlns="http://www.w3.org/2000/svg" xmlns:xlink="http://www.w3.org/1999/xlink" x="0px" y="0px"
	 viewBox="0 0 36 36" style="enable-background:new 0 0 36 36;" xml:space="preserve">
<style type="text/css">
	.st0{fill:#8DA490;}
</style>
<g>
	<path class="st0" d="M17.9,35.9c-2.5,0-4.8-0.5-6.9-1.4c-2.1-0.9-4-2.2-5.6-3.8c-1.6-1.6-2.9-3.5-3.8-5.7c-0.9-2.1-1.4-4.5-1.4-6.9
		c0-2.4,0.5-4.7,1.4-6.9c0.9-2.2,2.2-4,3.8-5.7C6.9,4,8.8,2.7,10.9,1.8c2.1-0.9,4.5-1.4,6.9-1.4c2.4,0,4.7,0.5,6.9,1.4
		C27,2.7,28.8,4,30.5,5.6c1.6,1.6,2.9,3.5,3.8,5.7c0.9,2.2,1.4,4.5,1.4,6.9c0,2.5-0.5,4.8-1.4,6.9c-0.9,2.1-2.2,4-3.8,5.7
		c-1.6,1.6-3.5,2.9-5.7,3.8C22.6,35.4,20.3,35.9,17.9,35.9z M15.7,17.5c1.2-0.5,1.9-1.4,1.9-2.7c0-1.2-0.4-2.1-1.2-2.6
		c-0.8-0.5-1.9-0.7-3.2-0.7H6.8v13.1h6.6c1.2,0,2.3-0.3,3.3-0.9c1-0.6,1.5-1.6,1.5-2.9c0-0.8-0.2-1.5-0.6-2.1
		C17.2,18.1,16.5,17.7,15.7,17.5z M12.8,16.7H9.5v-3.1h3.1c0.5,0,1,0.1,1.4,0.3c0.4,0.2,0.6,0.6,0.6,1.2c0,0.5-0.2,0.9-0.5,1.2
		C13.8,16.6,13.4,16.7,12.8,16.7z M13,22.4H9.5v-3.5h3.5c0.6,0,1.1,0.1,1.5,0.4c0.4,0.3,0.6,0.8,0.6,1.4c0,0.7-0.2,1.1-0.6,1.3
		C14.1,22.3,13.6,22.4,13,22.4z M24,14.9c-1.5,0-2.8,0.5-3.7,1.4c-0.9,0.9-1.4,2.1-1.4,3.5c0,1.5,0.5,2.6,1.4,3.5
		c0.9,0.9,2.1,1.4,3.7,1.4c1.1,0,2.1-0.3,2.9-0.8c0.8-0.6,1.4-1.4,1.8-2.5h-2.4c-0.1,0.3-0.3,0.6-0.8,1c-0.4,0.3-0.9,0.5-1.5,0.5
		c-0.8,0-1.3-0.2-1.7-0.7c-0.4-0.5-0.6-1.2-0.7-2h7.2c0.1-1.4-0.3-2.6-1.1-3.7C27,15.4,25.7,14.9,24,14.9z M26.9,12.3h-5.5v1.7h5.5
		V12.3z M23.9,16.8c0.7,0,1.1,0.1,1.5,0.3c0.3,0.2,0.5,0.7,0.7,1.4h-4.4c0-0.4,0.2-0.8,0.5-1.1C22.5,17,23.1,16.8,23.9,16.8z"/>
</g>
</svg>
