<?xml version="1.0" encoding="utf-8"?>
<!-- Generator: Adobe Illustrator 21.1.0, SVG Export Plug-In . SVG Version: 6.00 Build 0)  -->
<svg version="1.1" id="Warstwa_1" xmlns="http://www.w3.org/2000/svg" xmlns:xlink="http://www.w3.org/1999/xlink" x="0px" y="0px"
	 viewBox="0 0 36 36" style="enable-background:new 0 0 36 36;" xml:space="preserve">
<style type="text/css">
	.st0{fill:#8DA490;}
</style>
<path class="st0" d="M34.3,11.1c-0.9-2.2-2.2-4-3.8-5.7c-1.6-1.6-3.5-2.9-5.7-3.8c-2.2-0.9-4.5-1.4-6.9-1.4c-2.5,0-4.8,0.5-6.9,1.4
	c-2.1,0.9-4,2.2-5.6,3.8C3.7,7,2.5,8.9,1.5,11.1c-0.9,2.2-1.4,4.5-1.4,6.9c0,2.5,0.5,4.8,1.4,6.9c0.9,2.1,2.2,4,3.8,5.7
	c1.6,1.6,3.5,2.9,5.6,3.8c2.1,0.9,4.5,1.4,6.9,1.4c2.4,0,4.7-0.5,6.9-1.4c2.2-0.9,4.1-2.2,5.7-3.8c1.6-1.6,2.9-3.5,3.8-5.7
	c0.9-2.1,1.4-4.5,1.4-6.9C35.7,15.5,35.2,13.2,34.3,11.1z M13.7,10.8l5,8.6H8.7L13.7,10.8z M10.8,26.9L10.8,26.9L10.8,26.9
	c-0.9,0-1.6-0.5-2-1.2l0,0l-1.8-3.2h13.5l2.5,4.4H10.8z M28.4,23.9l-1.7,3L15.5,7.7h3.8c0.8,0,1.6,0.5,2,1.2l7.2,12.5
	c0.2,0.3,0.4,0.8,0.4,1.2C28.8,23,28.7,23.3,28.4,23.9z"/>
</svg>
