<?xml version="1.0" encoding="utf-8"?>
<!-- Generator: Adobe Illustrator 21.1.0, SVG Export Plug-In . SVG Version: 6.00 Build 0)  -->
<svg version="1.1" id="Warstwa_1" xmlns="http://www.w3.org/2000/svg" xmlns:xlink="http://www.w3.org/1999/xlink" x="0px" y="0px"
	 viewBox="0 0 36 36" style="enable-background:new 0 0 36 36;" xml:space="preserve">
<style type="text/css">
	.st0{fill:#8DA490;}
</style>
<path class="st0" d="M18,36.1c-2.5,0-4.8-0.5-7-1.4c-2.2-0.9-4.1-2.2-5.7-3.8c-1.6-1.6-2.9-3.5-3.8-5.7c-0.9-2.2-1.4-4.5-1.4-7
	c0-2.4,0.5-4.8,1.4-6.9c0.9-2.2,2.2-4.1,3.8-5.7C6.9,4,8.8,2.8,11,1.8c2.2-0.9,4.5-1.4,7-1.4c2.4,0,4.8,0.5,6.9,1.4
	C27.1,2.8,29,4,30.6,5.7c1.6,1.6,2.9,3.5,3.8,5.7c0.9,2.2,1.4,4.5,1.4,6.9c0,2.5-0.5,4.8-1.4,7c-0.9,2.2-2.2,4-3.8,5.7
	c-1.6,1.6-3.5,2.9-5.7,3.8C22.7,35.7,20.4,36.1,18,36.1z M29.1,11.5c0-1.2-0.4-2.3-1.3-3.1c-0.9-0.9-1.9-1.3-3.1-1.3H11.3
	C10,7.1,9,7.5,8.1,8.4c-0.9,0.9-1.3,1.9-1.3,3.1V25c0,1.2,0.4,2.3,1.3,3.1C9,29,10,29.4,11.3,29.4h13.4c1.2,0,2.3-0.4,3.1-1.3
	c0.9-0.9,1.3-1.9,1.3-3.1V11.5z M18,12.7c-0.6,0-1.2,0.1-1.8,0.3c-0.6,0.2-1.1,0.5-1.6,0.8H9.1v-1.1c0-0.9,0.3-1.7,1-2.4
	c0.6-0.6,1.4-1,2.4-1h11.1c0.9,0,1.8,0.3,2.4,1c0.7,0.6,1,1.4,1,2.4v1.1h-5.6c-0.5-0.3-1-0.6-1.5-0.8C19.2,12.8,18.6,12.7,18,12.7z
	 M23.5,27.2H12.4c-0.9,0-1.7-0.3-2.4-1c-0.6-0.7-1-1.4-1-2.4v-8.9h4.4c-0.3,0.5-0.6,1-0.8,1.6c-0.2,0.6-0.3,1.2-0.3,1.8
	c0,0.8,0.1,1.5,0.4,2.2c0.3,0.7,0.7,1.3,1.2,1.8c0.5,0.5,1.1,0.9,1.8,1.2c0.7,0.3,1.4,0.4,2.2,0.4c0.8,0,1.5-0.1,2.2-0.4
	c0.7-0.3,1.3-0.7,1.8-1.2c0.5-0.5,0.9-1.1,1.2-1.8c0.3-0.7,0.4-1.4,0.4-2.2c0-0.6-0.1-1.2-0.3-1.8c-0.2-0.6-0.5-1.1-0.8-1.6h4.5v8.9
	c0,0.9-0.3,1.7-1,2.4C25.3,26.9,24.5,27.2,23.5,27.2z M18,14.9c0.9,0,1.7,0.3,2.4,1c0.7,0.6,1,1.4,1,2.4c0,0.9-0.3,1.7-1,2.4
	c-0.7,0.6-1.4,1-2.4,1c-0.9,0-1.8-0.3-2.4-1c-0.7-0.6-1-1.4-1-2.4c0-0.9,0.3-1.7,1-2.4C16.2,15.3,17,14.9,18,14.9z M22.4,12.7h2.2
	v-2.2h-2.2V12.7z"/>
</svg>
