<?xml version="1.0" encoding="utf-8"?>
<!-- Generator: Adobe Illustrator 21.1.0, SVG Export Plug-In . SVG Version: 6.00 Build 0)  -->
<svg version="1.1" id="Warstwa_1" xmlns="http://www.w3.org/2000/svg" xmlns:xlink="http://www.w3.org/1999/xlink" x="0px" y="0px"
	 viewBox="0 0 36 36" style="enable-background:new 0 0 36 36;" xml:space="preserve">
<style type="text/css">
	.st0{fill:#8DA490;}
</style>
<path class="st0" d="M17.9,0.2c2.4,0,4.8,0.5,6.9,1.4c2.2,0.9,4.1,2.2,5.7,3.8c1.6,1.6,2.9,3.5,3.8,5.7c0.9,2.2,1.4,4.5,1.4,6.9
	c0,2.4-0.5,4.7-1.4,6.9c-0.9,2.2-2.2,4-3.8,5.7c-1.6,1.6-3.5,2.9-5.7,3.8c-2.2,0.9-4.5,1.4-6.9,1.4c-2.4,0-4.7-0.5-6.9-1.4
	c-2.2-0.9-4-2.2-5.7-3.8c-1.6-1.6-2.9-3.5-3.8-5.7c-0.9-2.2-1.4-4.5-1.4-6.9c0-2.4,0.5-4.8,1.4-6.9C2.5,8.9,3.7,7,5.4,5.4
	C7,3.8,8.9,2.5,11,1.6C13.2,0.7,15.5,0.2,17.9,0.2z M22.1,14.8h-2.8V13c0-0.4,0.1-0.6,0.3-0.7c0.2-0.1,0.4-0.2,0.5-0.2h2V9.1h-2.7
	c-0.8,0-1.4,0.1-1.9,0.4c-0.5,0.3-0.9,0.6-1.1,1c-0.3,0.4-0.5,0.8-0.5,1.2c-0.1,0.4-0.1,0.8-0.1,1.2v2h-1.8V18h1.8v8.9h3.7V18h2.5
	L22.1,14.8z"/>
</svg>
