<?xml version="1.0" encoding="utf-8"?>
<!-- Generator: Adobe Illustrator 21.1.0, SVG Export Plug-In . SVG Version: 6.00 Build 0)  -->
<svg version="1.1" id="Warstwa_1" xmlns="http://www.w3.org/2000/svg" xmlns:xlink="http://www.w3.org/1999/xlink" x="0px" y="0px"
	 viewBox="0 0 36 36" style="enable-background:new 0 0 36 36;" xml:space="preserve">
<style type="text/css">
	.st0{fill:#8DA490;}
</style>
<g>
	<path class="st0" d="M13.4,19.6l1.3,7.5h1L15,19.6C14.4,19.6,13.8,19.6,13.4,19.6z"/>
	<path class="st0" d="M21.6,9.4c0.1-0.5-0.1-0.9-0.6-1.1c-0.2-0.1-0.4,0-0.6,0.1c-0.1,0.1-0.2,0.1-0.3,0.1c-0.1,0-0.2-0.1-0.3-0.2
		c-0.1-0.2-0.3-0.4-0.5-0.4c-0.1,0-0.1,0-0.2,0c-0.4,0-0.7,0.3-0.8,0.7c-0.2,0.7,0.7,1.7,1.2,2.3C20.3,10.6,21.5,10.1,21.6,9.4z"/>
	<circle class="st0" cx="14.4" cy="12.4" r="1.4"/>
	<path class="st0" d="M20.8,19.6l-0.7,7.5h1l1.4-7.5C22,19.6,21.4,19.6,20.8,19.6z"/>
	<path class="st0" d="M23.7,14.9c-0.1,0-0.2-0.1-0.2-0.3c0-0.8-0.8-1.4-1.7-1.4c-0.2,0-0.5,0-0.7,0.1c-0.2,0.1-0.4,0-0.5-0.1
		c-0.2-0.3-0.5-0.6-0.8-0.8c-0.1,0-0.3,0.1-0.4,0.1l-0.6,1.8c0,0.1-0.2,0.2-0.3,0.2c0,0-0.1,0-0.1,0c-0.2,0-0.3-0.2-0.2-0.4l0.6-1.8
		c-0.1-0.1-0.3-0.3-0.5-0.5c-0.1,0-0.2,0-0.4,0c-0.5,0-0.7-0.2-1.1,0c0.2,0.3,0,0.6,0,1c0,0.9-0.8,1.9-1.9,1.9
		c-0.9,0-1.9-0.2-2.1-0.9c-0.4,0.3-0.4,0.4-0.4,0.9c0,0.1-0.1,0.2-0.2,0.3c-0.7,0.2-1.1,0.8-1.1,1.4c0,0.2,0,0.3,0.1,0.4
		c0,0,0,0,0,0l0,0c0.2,0.6,0.9,1,1.6,1c0,0,10.2,0,10.2,0h0c0,0,0,0,0,0l0,0c0,0,0,0,0,0c1,0,1.7-0.7,1.7-1.5
		C24.8,15.7,24.3,15.1,23.7,14.9z"/>
	<path class="st0" d="M34.3,11.2c-0.9-2.2-2.2-4-3.8-5.7C28.8,4,27,2.7,24.8,1.8c-2.2-0.9-4.5-1.4-6.9-1.4c-2.5,0-4.8,0.5-6.9,1.4
		C8.8,2.7,6.9,4,5.3,5.6C3.7,7.2,2.5,9,1.5,11.2c-0.9,2.2-1.4,4.5-1.4,6.9c0,2.5,0.5,4.8,1.4,6.9c0.9,2.1,2.2,4,3.8,5.7
		c1.6,1.6,3.5,2.9,5.6,3.8c2.1,0.9,4.5,1.4,6.9,1.4c2.4,0,4.7-0.5,6.9-1.4c2.2-0.9,4.1-2.2,5.7-3.8c1.6-1.6,2.9-3.5,3.8-5.7
		c0.9-2.1,1.4-4.5,1.4-6.9C35.7,15.7,35.2,13.4,34.3,11.2z M26.5,17.7l-2.7,9c-0.2,0.8-0.9,1.3-1.7,1.3h-8.5c-0.8,0-1.5-0.5-1.7-1.3
		l-2.7-9c-0.1-0.3-0.1-0.6-0.1-0.9c0-1.1,0.6-2,1.6-2.5c0.1-0.9,0.7-1.7,1.5-2.2c0.1-0.9,0.8-1.7,1.7-1.9c-0.1-0.4-0.5-0.7-0.9-0.7
		c-0.2,0-0.4-0.2-0.4-0.4s0.2-0.4,0.4-0.4c0.9,0,1.6,0.6,1.8,1.5c0.3,0,0.5,0.1,0.8,0.3c0.7-0.4,1.4-0.7,2.2-0.7
		c-0.2-0.5-0.4-1-0.2-1.5c0.2-0.9,1.1-1.4,2-1.2c0.3,0.1,0.6,0.3,0.8,0.5c0.3-0.1,0.6-0.1,0.9,0c0.9,0.2,1.4,1.2,1.1,2
		c-0.2,0.7-0.8,1.1-1.5,1.5c0.2,0.2,0.5,0.5,0.6,0.8c0.2-0.1,0.5-0.1,0.7-0.1c0.7,0,1.4,0.3,2,0.8c0.5,0.5,0.8,1,0.8,1.7
		c0.9,0.5,1.5,1.4,1.5,2.5C26.7,17.1,26.6,17.4,26.5,17.7z"/>
</g>
</svg>
