<?xml version="1.0" encoding="utf-8"?>
<!-- Generator: Adobe Illustrator 21.1.0, SVG Export Plug-In . SVG Version: 6.00 Build 0)  -->
<svg version="1.1" id="Warstwa_1" xmlns="http://www.w3.org/2000/svg" xmlns:xlink="http://www.w3.org/1999/xlink" x="0px" y="0px"
	 viewBox="0 0 36 36" style="enable-background:new 0 0 36 36;" xml:space="preserve">
<style type="text/css">
	.st0{fill:#8DA490;}
</style>
<path class="st0" d="M18,0.4c2.4,0,4.8,0.5,6.9,1.4C27.1,2.8,29,4,30.6,5.7c1.6,1.6,2.9,3.5,3.8,5.7c0.9,2.2,1.4,4.5,1.4,6.9
	c0,2.5-0.5,4.8-1.4,7c-0.9,2.2-2.2,4-3.8,5.7c-1.6,1.6-3.5,2.9-5.7,3.8c-2.2,0.9-4.5,1.4-6.9,1.4c-2.5,0-4.8-0.5-7-1.4
	c-2.2-0.9-4-2.2-5.7-3.8c-1.6-1.6-2.9-3.5-3.8-5.7c-0.9-2.2-1.4-4.5-1.4-7c0-2.4,0.5-4.8,1.4-6.9c0.9-2.2,2.2-4.1,3.8-5.7
	C7,4,8.9,2.8,11,1.8C13.2,0.9,15.5,0.4,18,0.4z M11.2,13.7c0.7,0,1.2-0.2,1.6-0.6c0.4-0.4,0.6-0.9,0.6-1.4c0-0.6-0.2-1.1-0.6-1.4
	c-0.4-0.4-0.9-0.6-1.5-0.6c-0.7,0-1.2,0.2-1.6,0.6c-0.4,0.4-0.6,0.9-0.6,1.4c0,0.6,0.2,1,0.6,1.4C10,13.5,10.5,13.7,11.2,13.7z
	 M13.1,15.3H9.3v11.5h3.8V15.3z M26.9,20.2c0-1.8-0.4-3.1-1.2-3.9c-0.8-0.8-1.9-1.3-3.1-1.3c-1.1,0-1.8,0.2-2.3,0.7
	c-0.5,0.4-0.9,0.9-1.1,1.3v-1.6h-3.8v6.2v5.3h3.8v-6.4c0-0.2,0-0.4,0-0.5s0-0.3,0.1-0.4c0.1-0.4,0.4-0.7,0.7-1
	c0.3-0.3,0.7-0.4,1.3-0.4c0.7,0,1.2,0.2,1.5,0.7c0.3,0.5,0.4,1.1,0.4,1.9v6.1h3.8V20.2z M19,17C19,16.9,19,16.9,19,17L19,17L19,17z"
	/>
</svg>
