<?xml version="1.0" encoding="utf-8"?>
<!-- Generator: Adobe Illustrator 21.1.0, SVG Export Plug-In . SVG Version: 6.00 Build 0)  -->
<svg version="1.1" id="Warstwa_1" xmlns="http://www.w3.org/2000/svg" xmlns:xlink="http://www.w3.org/1999/xlink" x="0px" y="0px"
	 viewBox="0 0 36 36" style="enable-background:new 0 0 36 36;" xml:space="preserve">
<style type="text/css">
	.st0{fill:#8DA490;}
</style>
<path class="st0" d="M17.7,36.1c-2.5,0-4.8-0.5-7-1.4c-2.2-0.9-4-2.2-5.6-3.8c-1.6-1.6-2.9-3.5-3.8-5.7c-0.9-2.2-1.4-4.5-1.4-7
	c0-2.4,0.5-4.8,1.4-6.9c0.9-2.2,2.2-4.1,3.8-5.7C6.7,4,8.6,2.8,10.7,1.8c2.2-0.9,4.5-1.4,7-1.4c2.4,0,4.8,0.5,6.9,1.4
	c2.2,0.9,4.1,2.2,5.7,3.8c1.6,1.6,2.9,3.5,3.8,5.7c0.9,2.2,1.4,4.5,1.4,6.9c0,2.5-0.5,4.8-1.4,7c-0.9,2.2-2.2,4-3.8,5.7
	c-1.6,1.6-3.5,2.9-5.7,3.8C22.4,35.6,20.1,36.1,17.7,36.1z M17.7,4.9c-1.9,0-3.6,0.3-5.2,1c-1.6,0.7-3,1.6-4.2,2.8
	C7,10,6.1,11.4,5.4,13c-0.7,1.6-1,3.4-1,5.2c0,1.9,0.3,3.6,1,5.2c0.7,1.6,1.6,3,2.8,4.2c1.2,1.2,2.6,2.2,4.2,2.8
	c1.6,0.7,3.4,1,5.2,1c1.9,0,3.6-0.3,5.2-1c1.6-0.7,3-1.6,4.2-2.8c1.2-1.2,2.2-2.6,2.8-4.2c0.7-1.6,1-3.4,1-5.2c0-1.9-0.3-3.6-1-5.2
	c-0.7-1.6-1.6-3-2.8-4.2c-1.2-1.2-2.6-2.2-4.2-2.8C21.3,5.2,19.6,4.9,17.7,4.9z M18.8,18.2c-2.3,0.7-4.3,1.7-5.8,3.1
	c-1.5,1.4-2.8,2.8-3.8,4.2c-0.9-1-1.6-2.1-2.1-3.4s-0.7-2.6-0.7-4v-0.3h0.1c2,0,4-0.1,5.9-0.3c1.9-0.2,3.8-0.5,5.6-1
	c0.1,0.3,0.3,0.6,0.4,0.8C18.6,17.7,18.7,18,18.8,18.2z M6.9,15.7C7.3,14,8,12.6,9,11.2c1-1.3,2.3-2.3,3.9-3.1
	c0.6,0.8,1.2,1.7,2,2.8c0.7,1.1,1.5,2.3,2.2,3.6c-1.6,0.4-3.3,0.7-5,0.9C10.3,15.6,8.6,15.7,6.9,15.7z M19.7,20.3
	c0.5,1.3,1,2.6,1.3,4c0.4,1.4,0.7,2.8,0.9,4.3c-1.3,0.5-2.7,0.8-4.3,0.8c-1.3,0-2.5-0.2-3.6-0.6c-1.1-0.4-2.2-1-3.1-1.7
	c0.9-1.4,2.1-2.8,3.5-4C15.8,21.8,17.6,20.9,19.7,20.3z M19.2,13.9c-0.7-1.3-1.5-2.5-2.2-3.6c-0.7-1.1-1.4-2-1.9-2.9
	c0.9-0.2,1.8-0.3,2.6-0.3c1.4,0,2.7,0.2,3.9,0.7c1.2,0.5,2.3,1.1,3.3,2c-0.8,0.9-1.7,1.8-2.7,2.4C21.3,12.9,20.3,13.4,19.2,13.9z
	 M21,17.8c-0.3-0.7-0.6-1.3-0.9-1.9c2.5-0.9,4.6-2.4,6.3-4.5c0.7,0.9,1.3,2,1.7,3.1c0.4,1.1,0.6,2.3,0.7,3.5
	c-1.5-0.3-2.9-0.4-4.2-0.4C23.4,17.5,22.2,17.6,21,17.8z M28.7,20.2c-0.3,1.5-0.8,2.9-1.6,4.2c-0.8,1.2-1.8,2.3-3.1,3.1
	c-0.2-1.4-0.5-2.7-0.9-3.9c-0.4-1.3-0.8-2.5-1.2-3.7c0.9-0.1,2-0.1,3.1-0.1C26.2,19.8,27.4,19.9,28.7,20.2z"/>
</svg>
