<?xml version="1.0" encoding="utf-8"?>
<!-- Generator: Adobe Illustrator 21.1.0, SVG Export Plug-In . SVG Version: 6.00 Build 0)  -->
<svg version="1.1" id="Warstwa_1" xmlns="http://www.w3.org/2000/svg" xmlns:xlink="http://www.w3.org/1999/xlink" x="0px" y="0px"
	 viewBox="0 0 36 36" style="enable-background:new 0 0 36 36;" xml:space="preserve">
<style type="text/css">
	.st0{fill:#8DA490;}
</style>
<g>
	<path class="st0" d="M17.8,25.9c-3,0-5.5-2.5-5.5-5.5c0-0.2-0.2-0.4-0.4-0.4s-0.4,0.2-0.4,0.4c0,3.5,2.8,6.3,6.3,6.3
		c0.2,0,0.4-0.2,0.4-0.4C18.3,26.1,18.1,25.9,17.8,25.9z"/>
	<path class="st0" d="M25.7,16.9l-3.7,0.4c-0.1,0.3-0.2,0.6-0.3,1c0,0.1-0.1,0.2-0.1,0.3c1.4,0.7,3.2,0.5,4.4-0.7
		c1.2-1.2,2.3-6,2.7-8.3c-0.2,0-0.4,0-0.6,0c-4,0-6.5,2.1-7.4,3c-0.7,0.7-1.1,1.7-1.1,2.7c0,1,0.4,2,1.1,2.7
		c0.1,0.1,0.1,0.1,0.2,0.1c0,0,0,0,0,0c0.1-0.3,0.2-0.7,0.3-1l-1-1.7c-0.1-0.2-0.1-0.5,0.1-0.6c0.2-0.1,0.5-0.1,0.6,0.1l0.6,1.1
		c0.1-0.2,0.2-0.5,0.2-0.7c0-0.1,0.1-0.1,0.1-0.2l-0.7-1.6c-0.1-0.2,0-0.5,0.2-0.6c0.2-0.1,0.5,0,0.6,0.2l0.4,1
		c0.2-0.3,0.5-0.6,0.7-0.9l-0.3-1.2c-0.1-0.2,0.1-0.5,0.3-0.5c0.2-0.1,0.5,0.1,0.5,0.3l0.2,0.7c1.4-1.2,2.8-2,2.9-2.1
		c0.2-0.1,0.5,0,0.6,0.2c0.1,0.2,0,0.5-0.2,0.6c0,0-1.2,0.6-2.4,1.6l1.4,0c0,0,0,0,0,0c0.2,0,0.4,0.2,0.4,0.4c0,0.2-0.2,0.4-0.4,0.4
		l-2.3,0.1c-0.2,0.3-0.5,0.5-0.7,0.8l2.4-0.4c0.2,0,0.4,0.1,0.5,0.3c0,0.2-0.1,0.4-0.3,0.5l-3.1,0.5c0,0,0,0.1,0,0.1
		c-0.1,0.3-0.2,0.6-0.3,0.9l3.3-0.4c0.2,0,0.4,0.1,0.5,0.4C26.1,16.7,26,16.9,25.7,16.9z"/>
	<path class="st0" d="M6.9,15.8c0,1.9,1.5,3.6,3.4,3.8v-4.6H6.9V15.8z"/>
	<path class="st0" d="M34.3,11.1c-0.9-2.2-2.2-4-3.8-5.7c-1.6-1.6-3.5-2.9-5.7-3.8c-2.2-0.9-4.5-1.4-6.9-1.4c-2.5,0-4.8,0.5-6.9,1.4
		c-2.1,0.9-4,2.2-5.6,3.8C3.7,7,2.5,8.9,1.5,11.1c-0.9,2.2-1.4,4.5-1.4,6.9c0,2.5,0.5,4.8,1.4,6.9c0.9,2.1,2.2,4,3.8,5.7
		c1.6,1.6,3.5,2.9,5.6,3.8c2.1,0.9,4.5,1.4,6.9,1.4c2.4,0,4.7-0.5,6.9-1.4c2.2-0.9,4.1-2.2,5.7-3.8c1.6-1.6,2.9-3.5,3.8-5.7
		c0.9-2.1,1.4-4.5,1.4-6.9C35.7,15.5,35.2,13.2,34.3,11.1z M28.4,27.1c0.2,0,0.4,0.2,0.4,0.4v1.7c0,0.2-0.2,0.4-0.4,0.4H7.8
		c-0.2,0-0.4-0.2-0.4-0.4v-1.7c0-0.2,0.2-0.4,0.4-0.4H14c-2.2-1.2-3.7-3.4-3.7-6.1v-0.7c-2.4-0.2-4.2-2.2-4.2-4.6v-1.3
		c0-0.2,0.2-0.4,0.4-0.4h4.2h3.9c0-0.6-0.3-1.6-1.2-2.8c-0.5-0.6-0.7-1.3-0.6-2c0.3-1.4,1.9-2.4,2-2.4c0.2-0.1,0.5,0,0.6,0.2
		c0.1,0.2,0,0.5-0.2,0.6c0,0-1.3,0.8-1.5,1.8c-0.1,0.4,0,0.9,0.4,1.3c1,1.2,1.3,2.3,1.4,3l0,0.3H19c0.1-0.5,0.3-0.9,0.5-1.3
		c0,0,0,0,0-0.1c0-0.1,0.3-1.5-1.2-3.4c-0.5-0.6-0.7-1.3-0.6-2c0.3-1.4,1.9-2.4,2-2.4c0.2-0.1,0.5,0,0.6,0.2c0.1,0.2,0,0.5-0.2,0.6
		c0,0-1.3,0.8-1.5,1.8c-0.1,0.4,0,0.9,0.4,1.3c1,1.2,1.3,2.3,1.4,3c1.2-1.2,4.2-3.4,9-3c0.1,0,0.2,0.1,0.3,0.2
		c0.1,0.1,0.1,0.2,0.1,0.3c-0.1,0.3-1.3,7.4-3,9.2c-0.4,0.4-0.9,0.7-1.3,0.9V21c0,2.6-1.5,4.9-3.7,6.1H28.4z"/>
</g>
</svg>
